<svg xmlns="http://www.w3.org/2000/svg" width="116" height="72" viewBox="0 0 116 72">
  <g id="Group_3" data-name="Group 3" transform="translate(-1 -41)">
    <g id="Group_2" data-name="Group 2">
      <g id="Group_1" data-name="Group 1">
        <g id="Rectangle_869" data-name="Rectangle 869" transform="translate(1 41)" fill="#d3edf4" stroke="#2c2c2c" stroke-width="0.5">
          <rect width="116" height="72" stroke="none"/>
          <rect x="0.25" y="0.25" width="115.5" height="71.5" fill="none"/>
        </g>
        <g id="Rectangle_857" data-name="Rectangle 857" transform="translate(8.132 64.082)" fill="#3e3e3e" stroke="#fff" stroke-width="0.3">
          <rect width="7.989" height="14.686" stroke="none"/>
          <rect x="0.15" y="0.15" width="7.689" height="14.386" fill="none"/>
        </g>
        <path id="Path_85" data-name="Path 85" d="M.78.459V14.671" transform="translate(5.22 63.526)" fill="none" stroke="#7b9ca5" stroke-width="3"/>
        <path id="Path_86" data-name="Path 86" d="M.78.459V14.671" transform="translate(17.473 63.526)" fill="none" stroke="#7b9ca5" stroke-width="3"/>
        <line id="Line_505" data-name="Line 505" y2="14.212" transform="translate(10.721 64.674)" fill="none" stroke="#fff" stroke-width="0.3"/>
        <line id="Line_506" data-name="Line 506" y2="14.212" transform="translate(13.419 64.674)" fill="none" stroke="#fff" stroke-width="0.3"/>
        <line id="Line_507" data-name="Line 507" x2="7.633" transform="translate(8.132 67.635)" fill="none" stroke="#fff" stroke-width="0.3"/>
        <line id="Line_508" data-name="Line 508" x2="7.633" transform="translate(8.132 71.188)" fill="none" stroke="#fff" stroke-width="0.5"/>
        <line id="Line_509" data-name="Line 509" x2="7.633" transform="translate(8.132 74.741)" fill="none" stroke="#fff" stroke-width="0.3"/>
        <path id="Path_87" data-name="Path 87" d="M-.86.278H8.906" transform="translate(8.14 63.278)" fill="none" stroke="#fff" stroke-width="0.5"/>
        <path id="Path_88" data-name="Path 88" d="M-.86.278H8.906" transform="translate(8.14 78.674)" fill="none" stroke="#fff" stroke-width="0.5"/>
        <g id="Rectangle_857-2" data-name="Rectangle 857" transform="translate(24.132 64.082)" fill="#3e3e3e" stroke="#fff" stroke-width="0.3">
          <rect width="7.989" height="14.686" stroke="none"/>
          <rect x="0.15" y="0.15" width="7.689" height="14.386" fill="none"/>
        </g>
        <path id="Path_85-2" data-name="Path 85" d="M.78.459V14.671" transform="translate(21.22 63.526)" fill="none" stroke="#7b9ca5" stroke-width="3"/>
        <path id="Path_86-2" data-name="Path 86" d="M.78.459V14.671" transform="translate(33.473 63.526)" fill="none" stroke="#7b9ca5" stroke-width="3"/>
        <line id="Line_505-2" data-name="Line 505" y2="14.212" transform="translate(26.721 64.674)" fill="none" stroke="#fff" stroke-width="0.3"/>
        <line id="Line_506-2" data-name="Line 506" y2="14.212" transform="translate(29.419 64.674)" fill="none" stroke="#fff" stroke-width="0.3"/>
        <line id="Line_507-2" data-name="Line 507" x2="7.633" transform="translate(24.132 67.635)" fill="none" stroke="#fff" stroke-width="0.3"/>
        <line id="Line_508-2" data-name="Line 508" x2="7.633" transform="translate(24.132 71.188)" fill="none" stroke="#fff" stroke-width="0.5"/>
        <line id="Line_509-2" data-name="Line 509" x2="7.633" transform="translate(24.132 74.741)" fill="none" stroke="#fff" stroke-width="0.3"/>
        <path id="Path_87-2" data-name="Path 87" d="M-.86.278H8.906" transform="translate(24.14 63.278)" fill="none" stroke="#fff" stroke-width="0.5"/>
        <path id="Path_88-2" data-name="Path 88" d="M-.86.278H8.906" transform="translate(24.14 78.674)" fill="none" stroke="#fff" stroke-width="0.5"/>
        <g id="Rectangle_857-3" data-name="Rectangle 857" transform="translate(36.132 64.082)" fill="#3e3e3e" stroke="#fff" stroke-width="0.3">
          <rect width="7.989" height="14.686" stroke="none"/>
          <rect x="0.15" y="0.15" width="7.689" height="14.386" fill="none"/>
        </g>
        <path id="Path_85-3" data-name="Path 85" d="M.78.459V14.671" transform="translate(33.22 63.526)" fill="none" stroke="#7b9ca5" stroke-width="3"/>
        <path id="Path_86-3" data-name="Path 86" d="M.78.459V14.671" transform="translate(45.473 63.526)" fill="none" stroke="#7b9ca5" stroke-width="3"/>
        <line id="Line_505-3" data-name="Line 505" y2="14.212" transform="translate(38.721 64.674)" fill="none" stroke="#fff" stroke-width="0.3"/>
        <line id="Line_506-3" data-name="Line 506" y2="14.212" transform="translate(41.419 64.674)" fill="none" stroke="#fff" stroke-width="0.3"/>
        <line id="Line_507-3" data-name="Line 507" x2="7.633" transform="translate(36.132 67.635)" fill="none" stroke="#fff" stroke-width="0.3"/>
        <line id="Line_508-3" data-name="Line 508" x2="7.633" transform="translate(36.132 71.188)" fill="none" stroke="#fff" stroke-width="0.5"/>
        <line id="Line_509-3" data-name="Line 509" x2="7.633" transform="translate(36.132 74.741)" fill="none" stroke="#fff" stroke-width="0.3"/>
        <path id="Path_87-3" data-name="Path 87" d="M-.86.278H8.906" transform="translate(36.14 63.278)" fill="none" stroke="#fff" stroke-width="0.5"/>
        <path id="Path_88-3" data-name="Path 88" d="M-.86.278H8.906" transform="translate(36.14 78.674)" fill="none" stroke="#fff" stroke-width="0.5"/>
        <g id="Rectangle_857-4" data-name="Rectangle 857" transform="translate(52.132 64.082)" fill="#3e3e3e" stroke="#fff" stroke-width="0.3">
          <rect width="7.989" height="14.686" stroke="none"/>
          <rect x="0.15" y="0.15" width="7.689" height="14.386" fill="none"/>
        </g>
        <path id="Path_85-4" data-name="Path 85" d="M.78.459V14.671" transform="translate(49.22 63.526)" fill="none" stroke="#7b9ca5" stroke-width="3"/>
        <path id="Path_86-4" data-name="Path 86" d="M.78.459V14.671" transform="translate(61.473 63.526)" fill="none" stroke="#7b9ca5" stroke-width="3"/>
        <line id="Line_505-4" data-name="Line 505" y2="14.212" transform="translate(54.721 64.674)" fill="none" stroke="#fff" stroke-width="0.3"/>
        <line id="Line_506-4" data-name="Line 506" y2="14.212" transform="translate(57.419 64.674)" fill="none" stroke="#fff" stroke-width="0.3"/>
        <line id="Line_507-4" data-name="Line 507" x2="7.633" transform="translate(52.132 67.635)" fill="none" stroke="#fff" stroke-width="0.3"/>
        <line id="Line_508-4" data-name="Line 508" x2="7.633" transform="translate(52.132 71.188)" fill="none" stroke="#fff" stroke-width="0.5"/>
        <line id="Line_509-4" data-name="Line 509" x2="7.633" transform="translate(52.132 74.741)" fill="none" stroke="#fff" stroke-width="0.3"/>
        <path id="Path_87-4" data-name="Path 87" d="M-.86.278H8.906" transform="translate(52.14 63.278)" fill="none" stroke="#fff" stroke-width="0.5"/>
        <path id="Path_88-4" data-name="Path 88" d="M-.86.278H8.906" transform="translate(52.14 78.674)" fill="none" stroke="#fff" stroke-width="0.5"/>
        <g id="Rectangle_857-5" data-name="Rectangle 857" transform="translate(68.132 64.082)" fill="#3e3e3e" stroke="#fff" stroke-width="0.3">
          <rect width="7.989" height="14.686" stroke="none"/>
          <rect x="0.15" y="0.15" width="7.689" height="14.386" fill="none"/>
        </g>
        <path id="Path_85-5" data-name="Path 85" d="M.78.459V14.671" transform="translate(65.22 63.526)" fill="none" stroke="#7b9ca5" stroke-width="3"/>
        <path id="Path_86-5" data-name="Path 86" d="M.78.459V14.671" transform="translate(77.473 63.526)" fill="none" stroke="#7b9ca5" stroke-width="3"/>
        <line id="Line_505-5" data-name="Line 505" y2="14.212" transform="translate(70.721 64.674)" fill="none" stroke="#fff" stroke-width="0.3"/>
        <line id="Line_506-5" data-name="Line 506" y2="14.212" transform="translate(73.419 64.674)" fill="none" stroke="#fff" stroke-width="0.3"/>
        <line id="Line_507-5" data-name="Line 507" x2="7.633" transform="translate(68.132 67.635)" fill="none" stroke="#fff" stroke-width="0.3"/>
        <line id="Line_508-5" data-name="Line 508" x2="7.633" transform="translate(68.132 71.188)" fill="none" stroke="#fff" stroke-width="0.5"/>
        <line id="Line_509-5" data-name="Line 509" x2="7.633" transform="translate(68.132 74.741)" fill="none" stroke="#fff" stroke-width="0.3"/>
        <path id="Path_87-5" data-name="Path 87" d="M-.86.278H8.906" transform="translate(68.14 63.278)" fill="none" stroke="#fff" stroke-width="0.5"/>
        <path id="Path_88-5" data-name="Path 88" d="M-.86.278H8.906" transform="translate(68.14 78.674)" fill="none" stroke="#fff" stroke-width="0.5"/>
        <g id="Rectangle_857-6" data-name="Rectangle 857" transform="translate(84.132 64.082)" fill="#3e3e3e" stroke="#fff" stroke-width="0.3">
          <rect width="7.989" height="14.686" stroke="none"/>
          <rect x="0.15" y="0.15" width="7.689" height="14.386" fill="none"/>
        </g>
        <path id="Path_85-6" data-name="Path 85" d="M.78.459V14.671" transform="translate(81.22 63.526)" fill="none" stroke="#7b9ca5" stroke-width="3"/>
        <path id="Path_86-6" data-name="Path 86" d="M.78.459V14.671" transform="translate(93.473 63.526)" fill="none" stroke="#7b9ca5" stroke-width="3"/>
        <line id="Line_505-6" data-name="Line 505" y2="14.212" transform="translate(86.721 64.674)" fill="none" stroke="#fff" stroke-width="0.3"/>
        <line id="Line_506-6" data-name="Line 506" y2="14.212" transform="translate(89.419 64.674)" fill="none" stroke="#fff" stroke-width="0.3"/>
        <line id="Line_507-6" data-name="Line 507" x2="7.633" transform="translate(84.132 67.635)" fill="none" stroke="#fff" stroke-width="0.3"/>
        <line id="Line_508-6" data-name="Line 508" x2="7.633" transform="translate(84.132 71.188)" fill="none" stroke="#fff" stroke-width="0.5"/>
        <line id="Line_509-6" data-name="Line 509" x2="7.633" transform="translate(84.132 74.741)" fill="none" stroke="#fff" stroke-width="0.3"/>
        <path id="Path_87-6" data-name="Path 87" d="M-.86.278H8.906" transform="translate(84.14 63.278)" fill="none" stroke="#fff" stroke-width="0.5"/>
        <path id="Path_88-6" data-name="Path 88" d="M-.86.278H8.906" transform="translate(84.14 78.674)" fill="none" stroke="#fff" stroke-width="0.5"/>
        <g id="Rectangle_857-7" data-name="Rectangle 857" transform="translate(100.132 64.082)" fill="#3e3e3e" stroke="#fff" stroke-width="0.3">
          <rect width="7.989" height="14.686" stroke="none"/>
          <rect x="0.15" y="0.15" width="7.689" height="14.386" fill="none"/>
        </g>
        <path id="Path_85-7" data-name="Path 85" d="M.78.459V14.671" transform="translate(97.22 63.526)" fill="none" stroke="#7b9ca5" stroke-width="3"/>
        <path id="Path_86-7" data-name="Path 86" d="M.78.459V14.671" transform="translate(109.473 63.526)" fill="none" stroke="#7b9ca5" stroke-width="3"/>
        <line id="Line_505-7" data-name="Line 505" y2="14.212" transform="translate(102.721 64.674)" fill="none" stroke="#fff" stroke-width="0.3"/>
        <line id="Line_506-7" data-name="Line 506" y2="14.212" transform="translate(105.419 64.674)" fill="none" stroke="#fff" stroke-width="0.3"/>
        <line id="Line_507-7" data-name="Line 507" x2="7.633" transform="translate(100.132 67.635)" fill="none" stroke="#fff" stroke-width="0.3"/>
        <line id="Line_508-7" data-name="Line 508" x2="7.633" transform="translate(100.132 71.188)" fill="none" stroke="#fff" stroke-width="0.5"/>
        <line id="Line_509-7" data-name="Line 509" x2="7.633" transform="translate(100.132 74.741)" fill="none" stroke="#fff" stroke-width="0.3"/>
        <path id="Path_87-7" data-name="Path 87" d="M-.86.278H8.906" transform="translate(100.14 63.278)" fill="none" stroke="#fff" stroke-width="0.5"/>
        <path id="Path_88-7" data-name="Path 88" d="M-.86.278H8.906" transform="translate(100.14 78.674)" fill="none" stroke="#fff" stroke-width="0.5"/>
        <line id="Line_510" data-name="Line 510" y2="4.424" transform="translate(5.727 54.5)" fill="none" stroke="#707070" stroke-width="0.8"/>
        <line id="Line_511" data-name="Line 511" x2="4.453" transform="translate(3.5 56.712)" fill="none" stroke="#707070" stroke-width="0.8"/>
        <line id="Line_510-2" data-name="Line 510" y2="4.424" transform="translate(29.727 54.5)" fill="none" stroke="#707070" stroke-width="0.8"/>
        <line id="Line_511-2" data-name="Line 511" x2="4.453" transform="translate(27.5 56.712)" fill="none" stroke="#707070" stroke-width="0.8"/>
        <line id="Line_510-3" data-name="Line 510" y2="4.424" transform="translate(55.996 54.516) rotate(7)" fill="none" stroke="#707070" stroke-width="0.8"/>
        <line id="Line_511-3" data-name="Line 511" x2="4.453" transform="translate(53.517 56.44) rotate(7)" fill="none" stroke="#707070" stroke-width="0.8"/>
        <line id="Line_510-4" data-name="Line 510" y2="4.424" transform="translate(79.996 54.516) rotate(7)" fill="none" stroke="#707070" stroke-width="0.8"/>
        <line id="Line_511-4" data-name="Line 511" x2="4.453" transform="translate(77.517 56.44) rotate(7)" fill="none" stroke="#707070" stroke-width="0.8"/>
        <line id="Line_510-5" data-name="Line 510" y2="4.424" transform="translate(107.727 54.5)" fill="none" stroke="#707070" stroke-width="0.8"/>
        <line id="Line_511-5" data-name="Line 511" x2="4.453" transform="translate(105.5 56.712)" fill="none" stroke="#707070" stroke-width="0.8"/>
        <g id="Rectangle_857-8" data-name="Rectangle 857" transform="translate(11.132 94.455)" fill="#414040" stroke="#fff" stroke-width="0.3">
          <rect width="7.989" height="12.342" stroke="none"/>
          <rect x="0.15" y="0.15" width="7.689" height="12.042" fill="none"/>
        </g>
        <path id="Path_85-8" data-name="Path 85" d="M.78.459V12.4" transform="translate(8.22 93.915)" fill="none" stroke="#7b9ca5" stroke-width="3"/>
        <path id="Path_86-8" data-name="Path 86" d="M.78.459V12.4" transform="translate(20.473 93.915)" fill="none" stroke="#7b9ca5" stroke-width="3"/>
        <line id="Line_505-8" data-name="Line 505" y2="11.943" transform="translate(13.721 94.953)" fill="none" stroke="#fff" stroke-width="0.3"/>
        <line id="Line_506-8" data-name="Line 506" y2="11.943" transform="translate(16.419 94.953)" fill="none" stroke="#fff" stroke-width="0.3"/>
        <line id="Line_507-8" data-name="Line 507" x2="7.633" transform="translate(11.132 97.441)" fill="none" stroke="#fff" stroke-width="0.3"/>
        <line id="Line_508-8" data-name="Line 508" x2="7.633" transform="translate(11.132 100.427)" fill="none" stroke="#fff" stroke-width="0.5"/>
        <line id="Line_509-8" data-name="Line 509" x2="7.633" transform="translate(11.132 103.413)" fill="none" stroke="#fff" stroke-width="0.3"/>
        <path id="Path_87-8" data-name="Path 87" d="M-.86.278H8.906" transform="translate(11.14 93.736)" fill="none" stroke="#fff" stroke-width="0.5"/>
        <path id="Path_88-8" data-name="Path 88" d="M-.86.278H8.906" transform="translate(11.14 106.674)" fill="none" stroke="#fff" stroke-width="0.5"/>
        <g id="Rectangle_857-9" data-name="Rectangle 857" transform="translate(27.132 94.455)" fill="#414040" stroke="#fff" stroke-width="0.3">
          <rect width="7.989" height="12.342" stroke="none"/>
          <rect x="0.15" y="0.15" width="7.689" height="12.042" fill="none"/>
        </g>
        <path id="Path_85-9" data-name="Path 85" d="M.78.459V12.4" transform="translate(24.22 93.915)" fill="none" stroke="#7b9ca5" stroke-width="3"/>
        <path id="Path_86-9" data-name="Path 86" d="M.78.459V12.4" transform="translate(36.473 93.915)" fill="none" stroke="#7b9ca5" stroke-width="3"/>
        <line id="Line_505-9" data-name="Line 505" y2="11.943" transform="translate(29.721 94.953)" fill="none" stroke="#fff" stroke-width="0.3"/>
        <line id="Line_506-9" data-name="Line 506" y2="11.943" transform="translate(32.419 94.953)" fill="none" stroke="#fff" stroke-width="0.3"/>
        <line id="Line_507-9" data-name="Line 507" x2="7.633" transform="translate(27.132 97.441)" fill="none" stroke="#fff" stroke-width="0.3"/>
        <line id="Line_508-9" data-name="Line 508" x2="7.633" transform="translate(27.132 100.427)" fill="none" stroke="#fff" stroke-width="0.5"/>
        <line id="Line_509-9" data-name="Line 509" x2="7.633" transform="translate(27.132 103.413)" fill="none" stroke="#fff" stroke-width="0.3"/>
        <path id="Path_87-9" data-name="Path 87" d="M-.86.278H8.906" transform="translate(27.14 93.736)" fill="none" stroke="#fff" stroke-width="0.5"/>
        <path id="Path_88-9" data-name="Path 88" d="M-.86.278H8.906" transform="translate(27.14 106.674)" fill="none" stroke="#fff" stroke-width="0.5"/>
        <g id="Rectangle_857-10" data-name="Rectangle 857" transform="translate(100.132 94.455)" fill="#414040" stroke="#fff" stroke-width="0.3">
          <rect width="7.989" height="12.342" stroke="none"/>
          <rect x="0.15" y="0.15" width="7.689" height="12.042" fill="none"/>
        </g>
        <path id="Path_85-10" data-name="Path 85" d="M.78.459V12.4" transform="translate(97.22 93.915)" fill="none" stroke="#7b9ca5" stroke-width="3"/>
        <path id="Path_86-10" data-name="Path 86" d="M.78.459V12.4" transform="translate(109.473 93.915)" fill="none" stroke="#7b9ca5" stroke-width="3"/>
        <line id="Line_505-10" data-name="Line 505" y2="11.943" transform="translate(102.721 94.953)" fill="none" stroke="#fff" stroke-width="0.3"/>
        <line id="Line_506-10" data-name="Line 506" y2="11.943" transform="translate(105.419 94.953)" fill="none" stroke="#fff" stroke-width="0.3"/>
        <line id="Line_507-10" data-name="Line 507" x2="7.633" transform="translate(100.132 97.441)" fill="none" stroke="#fff" stroke-width="0.3"/>
        <line id="Line_508-10" data-name="Line 508" x2="7.633" transform="translate(100.132 100.427)" fill="none" stroke="#fff" stroke-width="0.5"/>
        <line id="Line_509-10" data-name="Line 509" x2="7.633" transform="translate(100.132 103.413)" fill="none" stroke="#fff" stroke-width="0.3"/>
        <path id="Path_87-10" data-name="Path 87" d="M-.86.278H8.906" transform="translate(100.14 93.736)" fill="none" stroke="#fff" stroke-width="0.5"/>
        <path id="Path_88-10" data-name="Path 88" d="M-.86.278H8.906" transform="translate(100.14 106.674)" fill="none" stroke="#fff" stroke-width="0.5"/>
        <g id="Rectangle_857-11" data-name="Rectangle 857" transform="translate(80.132 94.455)" fill="#414040" stroke="#fff" stroke-width="0.3">
          <rect width="7.989" height="12.342" stroke="none"/>
          <rect x="0.15" y="0.15" width="7.689" height="12.042" fill="none"/>
        </g>
        <path id="Path_85-11" data-name="Path 85" d="M.78.459V12.4" transform="translate(77.22 93.915)" fill="none" stroke="#7b9ca5" stroke-width="3"/>
        <path id="Path_86-11" data-name="Path 86" d="M.78.459V12.4" transform="translate(89.473 93.915)" fill="none" stroke="#7b9ca5" stroke-width="3"/>
        <line id="Line_505-11" data-name="Line 505" y2="11.943" transform="translate(82.721 94.953)" fill="none" stroke="#fff" stroke-width="0.3"/>
        <line id="Line_506-11" data-name="Line 506" y2="11.943" transform="translate(85.419 94.953)" fill="none" stroke="#fff" stroke-width="0.3"/>
        <line id="Line_507-11" data-name="Line 507" x2="7.633" transform="translate(80.132 97.441)" fill="none" stroke="#fff" stroke-width="0.3"/>
        <line id="Line_508-11" data-name="Line 508" x2="7.633" transform="translate(80.132 100.427)" fill="none" stroke="#fff" stroke-width="0.5"/>
        <line id="Line_509-11" data-name="Line 509" x2="7.633" transform="translate(80.132 103.413)" fill="none" stroke="#fff" stroke-width="0.3"/>
        <path id="Path_87-11" data-name="Path 87" d="M-.86.278H8.906" transform="translate(80.14 93.736)" fill="none" stroke="#fff" stroke-width="0.5"/>
        <path id="Path_88-11" data-name="Path 88" d="M-.86.278H8.906" transform="translate(80.14 106.674)" fill="none" stroke="#fff" stroke-width="0.5"/>
        <g id="Path_89" data-name="Path 89" transform="translate(53.247 96.703)" fill="#fff">
          <path d="M 21.60964012145996 16.14702606201172 L 0.1499700099229813 16.14702606201172 L 0.1499700099229813 3.032037973403931 C 0.1697903275489807 2.96385383605957 0.1799045205116272 2.81201434135437 0.1847700178623199 2.389496803283691 C 0.1922000050544739 1.74489688873291 0.1804800182580948 0.6588968634605408 0.149940013885498 -0.838323175907135 C 0.141730010509491 -1.240743160247803 0.3717000186443329 -1.69532310962677 0.8149800300598145 -2.152923107147217 C 1.613029956817627 -2.976733207702637 3.083159923553467 -3.791073083877563 4.848400115966797 -4.387143135070801 C 6.797979831695557 -5.045463085174561 8.942500114440918 -5.406103134155273 11.05014038085938 -5.430063247680664 C 11.11100006103516 -5.430773258209229 11.17201995849609 -5.431133270263672 11.23295974731445 -5.431133270263672 C 16.20595932006836 -5.431133270263672 21.53981018066406 -3.066363096237183 21.60971069335938 -0.8305731415748596 C 21.71795082092285 2.631286859512329 21.66773986816406 3.114646911621094 21.64977073669434 3.180336952209473 C 21.65958976745605 3.144446849822998 21.70832061767578 3.091276884078979 21.78173065185547 3.091126918792725 C 21.78181838989258 3.091126680374146 21.78191947937012 3.091126680374146 21.78200721740723 3.091126680374146 C 21.84223747253418 3.091126680374146 21.88676071166992 3.127960920333862 21.90448188781738 3.159164905548096 L 21.60964012145996 3.185576915740967 L 21.60964012145996 16.14702606201172 Z" stroke="none"/>
          <path d="M 11.23295974731445 -5.281134605407715 C 11.17261028289795 -5.281134605407715 11.11217975616455 -5.280784606933594 11.05183982849121 -5.280075073242188 C 6.455430030822754 -5.227814674377441 2.402509689331055 -3.576114654541016 0.9227199554443359 -2.048555374145508 C 0.5079002380371094 -1.620345115661621 0.2925300598144531 -1.20290470123291 0.2999095916748047 -0.8413848876953125 C 0.3304805755615234 0.6574249267578125 0.3422107696533203 1.745024681091309 0.3347606658935547 2.391204833984375 C 0.3304023742675781 2.769374370574951 0.3233509063720703 2.949270248413086 0.2999706268310547 3.052275657653809 L 0.2999706268310547 15.99702453613281 L 21.45964050292969 15.99702453613281 L 21.45964050292969 3.185575008392334 L 21.75963973999023 3.185575008392334 L 22.05468940734863 3.131104946136475 C 22.03572082519531 3.054494857788086 21.93594932556152 2.94112491607666 21.78202056884766 2.94112491607666 C 21.6207103729248 2.94112491607666 21.52058982849121 3.063544750213623 21.50371932983398 3.146285057067871 C 21.52004051208496 3.066225051879883 21.56512069702148 2.543185234069824 21.45978927612305 -0.8258848190307617 C 21.4289608001709 -1.811534881591797 20.22241973876953 -2.931005477905273 18.23229026794434 -3.82048511505127 C 16.15534019470215 -4.748764991760254 13.60418033599854 -5.281154632568359 11.23295974731445 -5.281134605407715 M 11.2329626083374 -5.581130027770996 C 16.2625846862793 -5.581175804138184 21.68574333190918 -3.198368072509766 21.75963973999023 -0.8352651596069336 C 21.91164970397949 4.026515007019043 21.75963973999023 3.185575485229492 21.75963973999023 3.185575008392334 L 21.75963973999023 16.29702377319336 L -3.0517578125e-05 16.29702377319336 L -3.0517578125e-05 2.98890495300293 C -2.86102294921875e-05 2.988903522491455 0.0830841064453125 3.239254474639893 -3.0517578125e-05 -0.8352651596069336 C -0.04224967956542969 -2.905215263366699 5.267240524291992 -5.514325141906738 11.04843044281006 -5.58005428314209 C 11.10982799530029 -5.58077335357666 11.17143630981445 -5.581130027770996 11.2329626083374 -5.581130027770996 Z" stroke="none" fill="#707070"/>
        </g>
        <g id="Path_90" data-name="Path 90" transform="translate(54.44 97.431)" fill="#5d5d5d">
          <path d="M 19.42385482788086 -1.137661576271057 L 0.1499546319246292 -1.137661576271057 L 0.1499546319246292 -2.36346697807312 L 0.1566346436738968 -2.373271703720093 C 0.3499846458435059 -2.657061576843262 1.567984580993652 -3.418611526489258 3.351974725723267 -4.110341548919678 C 4.895654678344727 -4.708901405334473 7.291514873504639 -5.423881530761719 9.938994407653809 -5.430901527404785 L 9.969985008239746 -5.430941581726074 C 11.06231498718262 -5.430941581726074 13.33914470672607 -5.252811431884766 16.31498527526855 -4.059821605682373 C 18.19314765930176 -3.306881904602051 19.32351684570312 -2.555632829666138 19.42385482788086 -2.350152492523193 L 19.42385482788086 -1.137661576271057 Z" stroke="none"/>
          <path d="M 19.27385520935059 -1.287661671638489 L 19.27385520935059 -2.300421953201294 C 19.08819961547852 -2.514899492263794 18.03761863708496 -3.218903779983521 16.1534538269043 -3.96265172958374 C 13.24764442443848 -5.109671592712402 11.03204441070557 -5.280941486358643 9.969985008239746 -5.280941486358643 L 9.939394950866699 -5.280901432037354 C 7.314944744110107 -5.273941516876221 4.938034534454346 -4.564451694488525 3.406204700469971 -3.970491647720337 C 1.750264048576355 -3.328406095504761 0.6185387372970581 -2.632303714752197 0.3334502875804901 -2.349683046340942 C 0.3338286578655243 -2.199368476867676 0.3291627764701843 -2.116710424423218 0.2999546229839325 -2.052542686462402 L 0.2999546229839325 -1.287661671638489 L 19.27385520935059 -1.287661671638489 M 19.57385444641113 -0.987661600112915 L -4.536254709819332e-05 -0.987661600112915 L -4.536254709819332e-05 -2.371471643447876 C 0.02853262983262539 -2.044437885284424 0.03526175767183304 -2.173466444015503 0.03267038241028786 -2.457731485366821 C 0.4610610008239746 -3.086496591567993 5.00918436050415 -5.567821025848389 9.938594818115234 -5.580901622772217 C 14.50849151611328 -5.593393325805664 19.50658416748047 -2.873691558837891 19.57385444641113 -2.371471643447876 L 19.57385444641113 -0.987661600112915 Z M 19.62287712097168 -2.117820262908936 C 19.61351585388184 -2.117820262908936 19.5979175567627 -2.191852569580078 19.57385444641113 -2.371471643447876 L 19.57385444641113 -3.740501642227173 C 19.57385444641113 -3.740501642227173 19.66671562194824 -2.117820262908936 19.62287712097168 -2.117820262908936 Z M -4.536254709819332e-05 -2.371471643447876 C -0.0003467968781478703 -2.374919891357422 -0.0003479068691376597 -2.378473520278931 -4.536254709819332e-05 -2.382212400436401 L -4.536254709819332e-05 -2.371471643447876 Z M -4.536254709819332e-05 -2.382212400436401 L -4.536254709819332e-05 -3.781791687011719 C -4.536254709819332e-05 -3.781791687011719 0.02848272398114204 -2.917103290557861 0.03267038241028786 -2.457731485366821 C 0.01269904989749193 -2.428418874740601 0.001639576628804207 -2.403034448623657 -4.536254709819332e-05 -2.382212400436401 Z" stroke="none" fill="#707070"/>
        </g>
        <g id="Rectangle_870" data-name="Rectangle 870" transform="translate(55 98)" fill="#5d5d5d" stroke="#707070" stroke-width="0.3">
          <rect width="2" height="14" stroke="none"/>
          <rect x="0.15" y="0.15" width="1.7" height="13.7" fill="none"/>
        </g>
        <g id="Rectangle_871" data-name="Rectangle 871" transform="translate(59 98)" fill="#5d5d5d" stroke="#707070" stroke-width="0.3">
          <rect width="4" height="14" stroke="none"/>
          <rect x="0.15" y="0.15" width="3.7" height="13.7" fill="none"/>
        </g>
        <g id="Rectangle_872" data-name="Rectangle 872" transform="translate(65 98)" fill="#5d5d5d" stroke="#707070" stroke-width="0.3">
          <rect width="4" height="14" stroke="none"/>
          <rect x="0.15" y="0.15" width="3.7" height="13.7" fill="none"/>
        </g>
        <g id="Rectangle_873" data-name="Rectangle 873" transform="translate(71 98)" fill="#5d5d5d" stroke="#707070" stroke-width="0.3">
          <rect width="2" height="14" stroke="none"/>
          <rect x="0.15" y="0.15" width="1.7" height="13.7" fill="none"/>
        </g>
        <line id="Line_512" data-name="Line 512" x2="2" transform="translate(55 100.75)" fill="none" stroke="#fff" stroke-width="0.3"/>
        <line id="Line_513" data-name="Line 513" x2="2" transform="translate(55 103.75)" fill="none" stroke="#fff" stroke-width="0.3"/>
        <line id="Line_514" data-name="Line 514" x2="2" transform="translate(55 106.85)" fill="none" stroke="#fff" stroke-width="0.3"/>
        <line id="Line_515" data-name="Line 515" x2="2" transform="translate(55 109.5)" fill="none" stroke="#fff" stroke-width="0.3"/>
        <line id="Line_516" data-name="Line 516" x2="2" transform="translate(59 100.75)" fill="none" stroke="#fff" stroke-width="0.3"/>
        <line id="Line_517" data-name="Line 517" x2="2" transform="translate(59 103.75)" fill="none" stroke="#fff" stroke-width="0.3"/>
        <line id="Line_518" data-name="Line 518" x2="2" transform="translate(59 106.85)" fill="none" stroke="#fff" stroke-width="0.3"/>
        <line id="Line_519" data-name="Line 519" x2="2" transform="translate(59 109.5)" fill="none" stroke="#fff" stroke-width="0.3"/>
        <line id="Line_520" data-name="Line 520" x2="2" transform="translate(61 100.75)" fill="none" stroke="#fff" stroke-width="0.3"/>
        <line id="Line_521" data-name="Line 521" x2="2" transform="translate(61 103.75)" fill="none" stroke="#fff" stroke-width="0.3"/>
        <line id="Line_522" data-name="Line 522" x2="2" transform="translate(61 106.85)" fill="none" stroke="#fff" stroke-width="0.3"/>
        <line id="Line_523" data-name="Line 523" x2="2" transform="translate(61 109.5)" fill="none" stroke="#fff" stroke-width="0.3"/>
        <line id="Line_524" data-name="Line 524" x2="2" transform="translate(65 100.75)" fill="none" stroke="#fff" stroke-width="0.3"/>
        <line id="Line_525" data-name="Line 525" x2="2" transform="translate(65 103.75)" fill="none" stroke="#fff" stroke-width="0.3"/>
        <line id="Line_526" data-name="Line 526" x2="2" transform="translate(65 106.85)" fill="none" stroke="#fff" stroke-width="0.3"/>
        <line id="Line_527" data-name="Line 527" x2="2" transform="translate(65 109.5)" fill="none" stroke="#fff" stroke-width="0.3"/>
        <line id="Line_528" data-name="Line 528" x2="2" transform="translate(67 100.75)" fill="none" stroke="#fff" stroke-width="0.3"/>
        <line id="Line_529" data-name="Line 529" x2="2" transform="translate(67 103.75)" fill="none" stroke="#fff" stroke-width="0.3"/>
        <line id="Line_530" data-name="Line 530" x2="2" transform="translate(67 106.85)" fill="none" stroke="#fff" stroke-width="0.3"/>
        <line id="Line_531" data-name="Line 531" x2="2" transform="translate(67 109.5)" fill="none" stroke="#fff" stroke-width="0.3"/>
        <line id="Line_532" data-name="Line 532" x2="2" transform="translate(71 100.75)" fill="none" stroke="#fff" stroke-width="0.3"/>
        <line id="Line_533" data-name="Line 533" x2="2" transform="translate(71 103.75)" fill="none" stroke="#fff" stroke-width="0.3"/>
        <line id="Line_534" data-name="Line 534" x2="2" transform="translate(71 106.85)" fill="none" stroke="#fff" stroke-width="0.3"/>
        <line id="Line_535" data-name="Line 535" x2="2" transform="translate(71 109.5)" fill="none" stroke="#fff" stroke-width="0.3"/>
        <line id="Line_536" data-name="Line 536" y2="15" transform="translate(61 97.5)" fill="none" stroke="#fff" stroke-width="0.3"/>
        <line id="Line_537" data-name="Line 537" y2="15" transform="translate(67 97.5)" fill="none" stroke="#fff" stroke-width="0.3"/>
        <path id="Path_91" data-name="Path 91" d="M7.508,3.071-1.4.692" transform="translate(56.5 93.5)" fill="none" stroke="#fff" stroke-width="0.3"/>
        <path id="Path_92" data-name="Path 92" d="M5.3,2.92-.575-.6" transform="translate(58.5 93.5)" fill="none" stroke="#fff" stroke-width="0.3"/>
        <path id="Path_93" data-name="Path 93" d="M3.411,2.858.643-1.2" transform="translate(60.5 93.5)" fill="none" stroke="#fff" stroke-width="0.3"/>
        <path id="Path_94" data-name="Path 94" d="M1.263,3.062V-2.029" transform="translate(62.5 93.5)" fill="none" stroke="#fff" stroke-width="0.3"/>
        <path id="Path_95" data-name="Path 95" d="M-1.4,3.071,7.508.692" transform="translate(65.5 93.5)" fill="none" stroke="#fff" stroke-width="0.3"/>
        <path id="Path_96" data-name="Path 96" d="M-.575,2.92,5.3-.6" transform="translate(64.889 93.5)" fill="none" stroke="#fff" stroke-width="0.3"/>
        <path id="Path_97" data-name="Path 97" d="M.643,2.858,3.411-1.2" transform="translate(63.556 93.5)" fill="none" stroke="#fff" stroke-width="0.3"/>
        <g id="Ellipse_1" data-name="Ellipse 1" transform="translate(63 95.5)" fill="#fff" stroke="#fff" stroke-width="1">
          <circle cx="1" cy="1" r="1" stroke="none"/>
          <circle cx="1" cy="1" r="0.5" fill="none"/>
        </g>
        <line id="Line_538" data-name="Line 538" y2="2" transform="translate(63.5 107.25)" fill="none" stroke="#000" stroke-width="0.3"/>
        <line id="Line_539" data-name="Line 539" y2="1" transform="translate(63.5 105.25)" fill="none" stroke="#000" stroke-width="0.3"/>
        <line id="Line_540" data-name="Line 540" y2="1" transform="translate(63.5 104)" fill="none" stroke="#000" stroke-width="0.3"/>
        <g id="Ellipse_2" data-name="Ellipse 2" transform="translate(9 106)" fill="#1c7226" stroke="#54b162" stroke-width="0.5">
          <ellipse cx="6.5" cy="2.5" rx="6.5" ry="2.5" stroke="none"/>
          <ellipse cx="6.5" cy="2.5" rx="6.25" ry="2.25" fill="none"/>
        </g>
        <g id="Ellipse_3" data-name="Ellipse 3" transform="translate(10 106)" fill="#fff" stroke="#de5d24" stroke-width="1">
          <circle cx="1" cy="1" r="1" stroke="none"/>
          <circle cx="1" cy="1" r="0.5" fill="none"/>
        </g>
        <g id="Ellipse_4" data-name="Ellipse 4" transform="translate(11 107)" fill="#fff" stroke="#de5d24" stroke-width="1">
          <circle cx="1" cy="1" r="1" stroke="none"/>
          <circle cx="1" cy="1" r="0.5" fill="none"/>
        </g>
        <g id="Ellipse_5" data-name="Ellipse 5" transform="translate(13 106)" fill="#fff" stroke="#de5d24" stroke-width="1">
          <circle cx="1" cy="1" r="1" stroke="none"/>
          <circle cx="1" cy="1" r="0.5" fill="none"/>
        </g>
        <g id="Ellipse_6" data-name="Ellipse 6" transform="translate(13 107)" fill="#fff" stroke="#de5d24" stroke-width="1">
          <circle cx="1" cy="1" r="1" stroke="none"/>
          <circle cx="1" cy="1" r="0.5" fill="none"/>
        </g>
        <g id="Ellipse_7" data-name="Ellipse 7" transform="translate(15 106)" fill="#fff" stroke="#de5d24" stroke-width="1">
          <circle cx="1" cy="1" r="1" stroke="none"/>
          <circle cx="1" cy="1" r="0.5" fill="none"/>
        </g>
        <g id="Ellipse_8" data-name="Ellipse 8" transform="translate(16 107)" fill="#fff" stroke="#de5d24" stroke-width="1">
          <circle cx="1" cy="1" r="1" stroke="none"/>
          <circle cx="1" cy="1" r="0.5" fill="none"/>
        </g>
        <g id="Ellipse_9" data-name="Ellipse 9" transform="translate(17 105)" fill="#fff" stroke="#de5d24" stroke-width="1">
          <circle cx="1" cy="1" r="1" stroke="none"/>
          <circle cx="1" cy="1" r="0.5" fill="none"/>
        </g>
        <g id="Ellipse_10" data-name="Ellipse 10" transform="translate(18 107)" fill="#fff" stroke="#de5d24" stroke-width="1">
          <circle cx="1" cy="1" r="1" stroke="none"/>
          <circle cx="1" cy="1" r="0.5" fill="none"/>
        </g>
        <g id="Ellipse_11" data-name="Ellipse 11" transform="translate(19 106)" fill="#fff" stroke="#de5d24" stroke-width="1">
          <circle cx="1" cy="1" r="1" stroke="none"/>
          <circle cx="1" cy="1" r="0.5" fill="none"/>
        </g>
        <g id="Ellipse_2-2" data-name="Ellipse 2" transform="translate(25 106)" fill="#1c7226" stroke="#54b162" stroke-width="0.5">
          <ellipse cx="6.5" cy="2.5" rx="6.5" ry="2.5" stroke="none"/>
          <ellipse cx="6.5" cy="2.5" rx="6.25" ry="2.25" fill="none"/>
        </g>
        <g id="Ellipse_3-2" data-name="Ellipse 3" transform="translate(26 106)" fill="#fff" stroke="#de5d24" stroke-width="1">
          <circle cx="1" cy="1" r="1" stroke="none"/>
          <circle cx="1" cy="1" r="0.5" fill="none"/>
        </g>
        <g id="Ellipse_4-2" data-name="Ellipse 4" transform="translate(27 107)" fill="#fff" stroke="#de5d24" stroke-width="1">
          <circle cx="1" cy="1" r="1" stroke="none"/>
          <circle cx="1" cy="1" r="0.5" fill="none"/>
        </g>
        <g id="Ellipse_5-2" data-name="Ellipse 5" transform="translate(29 106)" fill="#fff" stroke="#de5d24" stroke-width="1">
          <circle cx="1" cy="1" r="1" stroke="none"/>
          <circle cx="1" cy="1" r="0.5" fill="none"/>
        </g>
        <g id="Ellipse_6-2" data-name="Ellipse 6" transform="translate(29 107)" fill="#fff" stroke="#de5d24" stroke-width="1">
          <circle cx="1" cy="1" r="1" stroke="none"/>
          <circle cx="1" cy="1" r="0.5" fill="none"/>
        </g>
        <g id="Ellipse_7-2" data-name="Ellipse 7" transform="translate(31 106)" fill="#fff" stroke="#de5d24" stroke-width="1">
          <circle cx="1" cy="1" r="1" stroke="none"/>
          <circle cx="1" cy="1" r="0.5" fill="none"/>
        </g>
        <g id="Ellipse_8-2" data-name="Ellipse 8" transform="translate(32 107)" fill="#fff" stroke="#de5d24" stroke-width="1">
          <circle cx="1" cy="1" r="1" stroke="none"/>
          <circle cx="1" cy="1" r="0.5" fill="none"/>
        </g>
        <g id="Ellipse_9-2" data-name="Ellipse 9" transform="translate(33 105)" fill="#fff" stroke="#de5d24" stroke-width="1">
          <circle cx="1" cy="1" r="1" stroke="none"/>
          <circle cx="1" cy="1" r="0.5" fill="none"/>
        </g>
        <g id="Ellipse_10-2" data-name="Ellipse 10" transform="translate(34 107)" fill="#fff" stroke="#de5d24" stroke-width="1">
          <circle cx="1" cy="1" r="1" stroke="none"/>
          <circle cx="1" cy="1" r="0.5" fill="none"/>
        </g>
        <g id="Ellipse_11-2" data-name="Ellipse 11" transform="translate(35 106)" fill="#fff" stroke="#de5d24" stroke-width="1">
          <circle cx="1" cy="1" r="1" stroke="none"/>
          <circle cx="1" cy="1" r="0.5" fill="none"/>
        </g>
        <g id="Ellipse_2-3" data-name="Ellipse 2" transform="translate(78 106)" fill="#1c7226" stroke="#54b162" stroke-width="0.5">
          <ellipse cx="6.5" cy="2.5" rx="6.5" ry="2.5" stroke="none"/>
          <ellipse cx="6.5" cy="2.5" rx="6.25" ry="2.25" fill="none"/>
        </g>
        <g id="Ellipse_3-3" data-name="Ellipse 3" transform="translate(79 106)" fill="#fff" stroke="#de5d24" stroke-width="1">
          <circle cx="1" cy="1" r="1" stroke="none"/>
          <circle cx="1" cy="1" r="0.5" fill="none"/>
        </g>
        <g id="Ellipse_4-3" data-name="Ellipse 4" transform="translate(80 107)" fill="#fff" stroke="#de5d24" stroke-width="1">
          <circle cx="1" cy="1" r="1" stroke="none"/>
          <circle cx="1" cy="1" r="0.5" fill="none"/>
        </g>
        <g id="Ellipse_5-3" data-name="Ellipse 5" transform="translate(82 106)" fill="#fff" stroke="#de5d24" stroke-width="1">
          <circle cx="1" cy="1" r="1" stroke="none"/>
          <circle cx="1" cy="1" r="0.5" fill="none"/>
        </g>
        <g id="Ellipse_6-3" data-name="Ellipse 6" transform="translate(82 107)" fill="#fff" stroke="#de5d24" stroke-width="1">
          <circle cx="1" cy="1" r="1" stroke="none"/>
          <circle cx="1" cy="1" r="0.5" fill="none"/>
        </g>
        <g id="Ellipse_7-3" data-name="Ellipse 7" transform="translate(84 106)" fill="#fff" stroke="#de5d24" stroke-width="1">
          <circle cx="1" cy="1" r="1" stroke="none"/>
          <circle cx="1" cy="1" r="0.5" fill="none"/>
        </g>
        <g id="Ellipse_8-3" data-name="Ellipse 8" transform="translate(85 107)" fill="#fff" stroke="#de5d24" stroke-width="1">
          <circle cx="1" cy="1" r="1" stroke="none"/>
          <circle cx="1" cy="1" r="0.5" fill="none"/>
        </g>
        <g id="Ellipse_9-3" data-name="Ellipse 9" transform="translate(86 105)" fill="#fff" stroke="#de5d24" stroke-width="1">
          <circle cx="1" cy="1" r="1" stroke="none"/>
          <circle cx="1" cy="1" r="0.5" fill="none"/>
        </g>
        <g id="Ellipse_10-3" data-name="Ellipse 10" transform="translate(87 107)" fill="#fff" stroke="#de5d24" stroke-width="1">
          <circle cx="1" cy="1" r="1" stroke="none"/>
          <circle cx="1" cy="1" r="0.5" fill="none"/>
        </g>
        <g id="Ellipse_11-3" data-name="Ellipse 11" transform="translate(88 106)" fill="#fff" stroke="#de5d24" stroke-width="1">
          <circle cx="1" cy="1" r="1" stroke="none"/>
          <circle cx="1" cy="1" r="0.5" fill="none"/>
        </g>
        <g id="Ellipse_2-4" data-name="Ellipse 2" transform="translate(98 106)" fill="#1c7226" stroke="#54b162" stroke-width="0.5">
          <ellipse cx="6.5" cy="2.5" rx="6.5" ry="2.5" stroke="none"/>
          <ellipse cx="6.5" cy="2.5" rx="6.25" ry="2.25" fill="none"/>
        </g>
        <g id="Ellipse_3-4" data-name="Ellipse 3" transform="translate(99 106)" fill="#fff" stroke="#de5d24" stroke-width="1">
          <circle cx="1" cy="1" r="1" stroke="none"/>
          <circle cx="1" cy="1" r="0.5" fill="none"/>
        </g>
        <g id="Ellipse_4-4" data-name="Ellipse 4" transform="translate(100 107)" fill="#fff" stroke="#de5d24" stroke-width="1">
          <circle cx="1" cy="1" r="1" stroke="none"/>
          <circle cx="1" cy="1" r="0.5" fill="none"/>
        </g>
        <g id="Ellipse_5-4" data-name="Ellipse 5" transform="translate(102 106)" fill="#fff" stroke="#de5d24" stroke-width="1">
          <circle cx="1" cy="1" r="1" stroke="none"/>
          <circle cx="1" cy="1" r="0.5" fill="none"/>
        </g>
        <g id="Ellipse_6-4" data-name="Ellipse 6" transform="translate(102 107)" fill="#fff" stroke="#de5d24" stroke-width="1">
          <circle cx="1" cy="1" r="1" stroke="none"/>
          <circle cx="1" cy="1" r="0.5" fill="none"/>
        </g>
        <g id="Ellipse_7-4" data-name="Ellipse 7" transform="translate(104 106)" fill="#fff" stroke="#de5d24" stroke-width="1">
          <circle cx="1" cy="1" r="1" stroke="none"/>
          <circle cx="1" cy="1" r="0.5" fill="none"/>
        </g>
        <g id="Ellipse_8-4" data-name="Ellipse 8" transform="translate(105 107)" fill="#fff" stroke="#de5d24" stroke-width="1">
          <circle cx="1" cy="1" r="1" stroke="none"/>
          <circle cx="1" cy="1" r="0.5" fill="none"/>
        </g>
        <g id="Ellipse_9-4" data-name="Ellipse 9" transform="translate(106 105)" fill="#fff" stroke="#de5d24" stroke-width="1">
          <circle cx="1" cy="1" r="1" stroke="none"/>
          <circle cx="1" cy="1" r="0.5" fill="none"/>
        </g>
        <g id="Ellipse_10-4" data-name="Ellipse 10" transform="translate(107 107)" fill="#fff" stroke="#de5d24" stroke-width="1">
          <circle cx="1" cy="1" r="1" stroke="none"/>
          <circle cx="1" cy="1" r="0.5" fill="none"/>
        </g>
        <g id="Ellipse_11-4" data-name="Ellipse 11" transform="translate(108 106)" fill="#fff" stroke="#de5d24" stroke-width="1">
          <circle cx="1" cy="1" r="1" stroke="none"/>
          <circle cx="1" cy="1" r="0.5" fill="none"/>
        </g>
        <g id="Path_98" data-name="Path 98" transform="translate(43 108.25)" fill="#fff">
          <path d="M 5.110328197479248 4.599999904632568 L 1.259706139564514 4.599999904632568 L 0.1903196573257446 0.1500000059604645 L 5.824023723602295 0.1500000059604645 L 5.110328197479248 4.599999904632568 Z" stroke="none"/>
          <path d="M 0.3806395530700684 0.3000001907348633 L 1.377932548522949 4.449999809265137 L 4.982474327087402 4.449999809265137 L 5.648056030273438 0.3000001907348633 L 0.3806395530700684 0.3000001907348633 M 0 0 L 6 0 L 5.238190174102783 4.75 L 1.141479969024658 4.75 L 0 0 Z" stroke="none" fill="#707070"/>
        </g>
        <g id="Ellipse_12" data-name="Ellipse 12" transform="translate(43 99)" fill="#3e9849" stroke="#54b162" stroke-width="0.5">
          <ellipse cx="3" cy="5" rx="3" ry="5" stroke="none"/>
          <ellipse cx="3" cy="5" rx="2.75" ry="4.75" fill="none"/>
        </g>
        <g id="Ellipse_13" data-name="Ellipse 13" transform="translate(45 104)" fill="#fff" stroke="#de5d24" stroke-width="1">
          <circle cx="1" cy="1" r="1" stroke="none"/>
          <circle cx="1" cy="1" r="0.5" fill="none"/>
        </g>
        <g id="Ellipse_14" data-name="Ellipse 14" transform="translate(46 103)" fill="#fff" stroke="#de5d24" stroke-width="1">
          <circle cx="1" cy="1" r="1" stroke="none"/>
          <circle cx="1" cy="1" r="0.5" fill="none"/>
        </g>
        <g id="Ellipse_15" data-name="Ellipse 15" transform="translate(48 104)" fill="#fff" stroke="#de5d24" stroke-width="1">
          <circle cx="1" cy="1" r="1" stroke="none"/>
          <circle cx="1" cy="1" r="0.5" fill="none"/>
        </g>
        <g id="Ellipse_16" data-name="Ellipse 16" transform="translate(43 104)" fill="#fff" stroke="#de5d24" stroke-width="1">
          <circle cx="1" cy="1" r="1" stroke="none"/>
          <circle cx="1" cy="1" r="0.5" fill="none"/>
        </g>
        <g id="Ellipse_17" data-name="Ellipse 17" transform="translate(47 105)" fill="#fff" stroke="#de5d24" stroke-width="1">
          <circle cx="1" cy="1" r="1" stroke="none"/>
          <circle cx="1" cy="1" r="0.5" fill="none"/>
        </g>
        <g id="Ellipse_18" data-name="Ellipse 18" transform="translate(46 103)" fill="#fff" stroke="#de5d24" stroke-width="1">
          <circle cx="1" cy="1" r="1" stroke="none"/>
          <circle cx="1" cy="1" r="0.5" fill="none"/>
        </g>
        <g id="Ellipse_19" data-name="Ellipse 19" transform="translate(45 105)" fill="#fff" stroke="#de5d24" stroke-width="1">
          <circle cx="1" cy="1" r="1" stroke="none"/>
          <circle cx="1" cy="1" r="0.5" fill="none"/>
        </g>
        <g id="Ellipse_20" data-name="Ellipse 20" transform="translate(44.5 104)" fill="#fff" stroke="#de5d24" stroke-width="1">
          <circle cx="1" cy="1" r="1" stroke="none"/>
          <circle cx="1" cy="1" r="0.5" fill="none"/>
        </g>
        <g id="Ellipse_21" data-name="Ellipse 21" transform="translate(48 104)" fill="#fff" stroke="#de5d24" stroke-width="1">
          <circle cx="1" cy="1" r="1" stroke="none"/>
          <circle cx="1" cy="1" r="0.5" fill="none"/>
        </g>
        <g id="Rectangle_874" data-name="Rectangle 874" transform="translate(1 42)" fill="#fff" stroke="#707070" stroke-width="0.3">
          <rect width="116" height="5" stroke="none"/>
          <rect x="0.15" y="0.15" width="115.7" height="4.7" fill="none"/>
        </g>
        <g id="Rectangle_875" data-name="Rectangle 875" transform="translate(1.5 41.5)" fill="#fff" stroke="#707070" stroke-width="0.3">
          <rect width="2.5" height="5.5" stroke="none"/>
          <rect x="0.15" y="0.15" width="2.2" height="5.2" fill="none"/>
        </g>
        <g id="Rectangle_876" data-name="Rectangle 876" transform="translate(114 41.5)" fill="#fff" stroke="#707070" stroke-width="0.3">
          <rect width="2.5" height="5.5" stroke="none"/>
          <rect x="0.15" y="0.15" width="2.2" height="5.2" fill="none"/>
        </g>
        <line id="Line_541" data-name="Line 541" x2="110" transform="translate(4 43.25)" fill="none" stroke="#707070" stroke-width="0.3"/>
        <g id="Rectangle_877" data-name="Rectangle 877" transform="translate(17 43)" fill="#fff" stroke="#707070" stroke-width="0.3">
          <rect width="2" height="3" stroke="none"/>
          <rect x="0.15" y="0.15" width="1.7" height="2.7" fill="none"/>
        </g>
        <g id="Rectangle_878" data-name="Rectangle 878" transform="translate(30.5 43)" fill="#fff" stroke="#707070" stroke-width="0.3">
          <rect width="2" height="3" stroke="none"/>
          <rect x="0.15" y="0.15" width="1.7" height="2.7" fill="none"/>
        </g>
        <g id="Rectangle_879" data-name="Rectangle 879" transform="translate(41.5 43)" fill="#fff" stroke="#707070" stroke-width="0.3">
          <rect width="2" height="3" stroke="none"/>
          <rect x="0.15" y="0.15" width="1.7" height="2.7" fill="none"/>
        </g>
        <g id="Rectangle_880" data-name="Rectangle 880" transform="translate(55.5 43)" fill="#fff" stroke="#707070" stroke-width="0.3">
          <rect width="2" height="3" stroke="none"/>
          <rect x="0.15" y="0.15" width="1.7" height="2.7" fill="none"/>
        </g>
        <g id="Rectangle_881" data-name="Rectangle 881" transform="translate(68.5 43)" fill="#fff" stroke="#707070" stroke-width="0.3">
          <rect width="2" height="3" stroke="none"/>
          <rect x="0.15" y="0.15" width="1.7" height="2.7" fill="none"/>
        </g>
        <g id="Rectangle_882" data-name="Rectangle 882" transform="translate(82.5 43)" fill="#fff" stroke="#707070" stroke-width="0.3">
          <rect width="2" height="3" stroke="none"/>
          <rect x="0.15" y="0.15" width="1.7" height="2.7" fill="none"/>
        </g>
        <g id="Rectangle_883" data-name="Rectangle 883" transform="translate(97.5 43)" fill="#fff" stroke="#707070" stroke-width="0.3">
          <rect width="2" height="3" stroke="none"/>
          <rect x="0.15" y="0.15" width="1.7" height="2.7" fill="none"/>
        </g>
        <line id="Line_542" data-name="Line 542" x2="3" transform="translate(49.5 91.5)" fill="none" stroke="#98a9ad" stroke-width="0.3"/>
        <line id="Line_543" data-name="Line 543" x2="1" transform="translate(50.5 92.5)" fill="none" stroke="#98a9ad" stroke-width="0.3"/>
      </g>
    </g>
  </g>
</svg>
