<svg xmlns="http://www.w3.org/2000/svg" width="45" height="40" viewBox="0 0 45 40">
  <g id="Group_1435" data-name="Group 1435" transform="translate(-1119 2843)">
    <g id="Rectangle_350" data-name="Rectangle 350" transform="translate(1119 -2831)" fill="#e0979a" stroke="#707070" stroke-width="1">
      <rect width="45" height="28" stroke="none"/>
      <rect x="0.5" y="0.5" width="44" height="27" fill="none"/>
    </g>
    <rect id="Rectangle_363" data-name="Rectangle 363" width="9" height="7" rx="3.5" transform="translate(1128 -2811)" fill="rgba(103,101,101,0.98)"/>
    <rect id="Rectangle_361" data-name="Rectangle 361" width="5" height="7" rx="2.5" transform="translate(1140 -2811)" fill="rgba(103,101,101,0.98)"/>
    <rect id="Rectangle_362" data-name="Rectangle 362" width="9" height="3" transform="translate(1128 -2807)" fill="rgba(103,101,101,0.98)"/>
    <rect id="Rectangle_481" data-name="Rectangle 481" width="9" height="7" rx="3.5" transform="translate(1148 -2811)" fill="rgba(103,101,101,0.98)"/>
    <rect id="Rectangle_482" data-name="Rectangle 482" width="9" height="3" transform="translate(1148 -2807)" fill="rgba(103,101,101,0.98)"/>
    <rect id="Rectangle_483" data-name="Rectangle 483" width="5" height="3" transform="translate(1140 -2807)" fill="rgba(103,101,101,0.98)"/>
    <g id="Group_1425" data-name="Group 1425" transform="translate(70 -51)">
      <g id="Rectangle_777" data-name="Rectangle 777" transform="translate(1055 -2770)" fill="#b4b3b3" stroke="#504f4f" stroke-width="0.5">
        <rect width="4" height="6" stroke="none"/>
        <rect x="0.25" y="0.25" width="3.5" height="5.5" fill="none"/>
      </g>
      <rect id="Rectangle_778" data-name="Rectangle 778" width="1.5" height="5.5" transform="translate(1054 -2769.8)" fill="#3e3e3d"/>
      <line id="Line_395" data-name="Line 395" x1="3" transform="translate(1055.5 -2767)" fill="none" stroke="#585857" stroke-width="0.3"/>
      <line id="Line_396" data-name="Line 396" y2="5" transform="translate(1057 -2769.5)" fill="none" stroke="#585857" stroke-width="0.3"/>
      <rect id="Rectangle_779" data-name="Rectangle 779" width="1.5" height="5.5" transform="translate(1058.5 -2769.8)" fill="#3e3e3d"/>
    </g>
    <g id="Group_1426" data-name="Group 1426" transform="translate(84 -51)">
      <g id="Rectangle_777-2" data-name="Rectangle 777" transform="translate(1055 -2770)" fill="#b4b3b3" stroke="#504f4f" stroke-width="0.5">
        <rect width="4" height="8.551" stroke="none"/>
        <rect x="0.25" y="0.25" width="3.5" height="8.051" fill="none"/>
      </g>
      <rect id="Rectangle_778-2" data-name="Rectangle 778" width="1.5" height="8.051" transform="translate(1054 -2769.8)" fill="#3e3e3d"/>
      <line id="Line_395-2" data-name="Line 395" x1="3" transform="translate(1055.5 -2766)" fill="none" stroke="#585857" stroke-width="0.3"/>
      <line id="Line_396-2" data-name="Line 396" y2="7.551" transform="translate(1057 -2769.5)" fill="none" stroke="#585857" stroke-width="0.3"/>
      <rect id="Rectangle_779-2" data-name="Rectangle 779" width="1.5" height="8.051" transform="translate(1058.5 -2769.8)" fill="#3e3e3d"/>
    </g>
    <g id="Group_1427" data-name="Group 1427" transform="translate(77 -51)">
      <g id="Rectangle_777-3" data-name="Rectangle 777" transform="translate(1055 -2770)" fill="#b4b3b3" stroke="#504f4f" stroke-width="0.5">
        <rect width="4" height="6" stroke="none"/>
        <rect x="0.25" y="0.25" width="3.5" height="5.5" fill="none"/>
      </g>
      <rect id="Rectangle_778-3" data-name="Rectangle 778" width="1.5" height="5.5" transform="translate(1054 -2769.8)" fill="#3e3e3d"/>
      <line id="Line_395-3" data-name="Line 395" x1="3" transform="translate(1055.5 -2767)" fill="none" stroke="#585857" stroke-width="0.3"/>
      <line id="Line_396-3" data-name="Line 396" y2="5" transform="translate(1057 -2769.5)" fill="none" stroke="#585857" stroke-width="0.3"/>
      <rect id="Rectangle_779-3" data-name="Rectangle 779" width="1.5" height="5.5" transform="translate(1058.5 -2769.8)" fill="#3e3e3d"/>
    </g>
    <line id="Line_408" data-name="Line 408" x2="7" transform="translate(1137.5 -2815.5)" fill="none" stroke="#000" stroke-width="0.3"/>
    <line id="Line_409" data-name="Line 409" y2="3" transform="translate(1137.5 -2815.5)" fill="none" stroke="#000" stroke-width="0.3"/>
    <line id="Line_410" data-name="Line 410" y2="3" transform="translate(1137.5 -2815.5)" fill="none" stroke="#000" stroke-width="0.3"/>
    <line id="Line_411" data-name="Line 411" y2="3" transform="translate(1139.5 -2815.5)" fill="none" stroke="#000" stroke-width="0.3"/>
    <line id="Line_412" data-name="Line 412" y2="3" transform="translate(1140.5 -2815.5)" fill="none" stroke="#000" stroke-width="0.3"/>
    <line id="Line_413" data-name="Line 413" y2="3" transform="translate(1141.5 -2815.5)" fill="none" stroke="#000" stroke-width="0.3"/>
    <line id="Line_414" data-name="Line 414" y2="3" transform="translate(1142.5 -2815.5)" fill="none" stroke="#000" stroke-width="0.3"/>
    <line id="Line_415" data-name="Line 415" y2="3" transform="translate(1143.5 -2815.5)" fill="none" stroke="#000" stroke-width="0.3"/>
    <line id="Line_416" data-name="Line 416" y2="3" transform="translate(1144.5 -2815.5)" fill="none" stroke="#000" stroke-width="0.3"/>
    <line id="Line_417" data-name="Line 417" y2="3" transform="translate(1138.5 -2815.5)" fill="none" stroke="#000" stroke-width="0.3"/>
    <g id="Group_1428" data-name="Group 1428" transform="translate(91 -51)">
      <g id="Rectangle_777-4" data-name="Rectangle 777" transform="translate(1055 -2770)" fill="#b4b3b3" stroke="#504f4f" stroke-width="0.5">
        <rect width="4" height="6" stroke="none"/>
        <rect x="0.25" y="0.25" width="3.5" height="5.5" fill="none"/>
      </g>
      <rect id="Rectangle_778-4" data-name="Rectangle 778" width="1.5" height="5.5" transform="translate(1054 -2769.8)" fill="#3e3e3d"/>
      <line id="Line_395-4" data-name="Line 395" x1="3" transform="translate(1055.5 -2767)" fill="none" stroke="#585857" stroke-width="0.3"/>
      <line id="Line_396-4" data-name="Line 396" y2="5" transform="translate(1057 -2769.5)" fill="none" stroke="#585857" stroke-width="0.3"/>
      <rect id="Rectangle_779-4" data-name="Rectangle 779" width="1.5" height="5.5" transform="translate(1058.5 -2769.8)" fill="#3e3e3d"/>
    </g>
    <g id="Group_1429" data-name="Group 1429" transform="translate(98 -51)">
      <g id="Rectangle_777-5" data-name="Rectangle 777" transform="translate(1055 -2770)" fill="#b4b3b3" stroke="#504f4f" stroke-width="0.5">
        <rect width="4" height="6" stroke="none"/>
        <rect x="0.25" y="0.25" width="3.5" height="5.5" fill="none"/>
      </g>
      <rect id="Rectangle_778-5" data-name="Rectangle 778" width="1.5" height="5.5" transform="translate(1054 -2769.8)" fill="#3e3e3d"/>
      <line id="Line_395-5" data-name="Line 395" x1="3" transform="translate(1055.5 -2767)" fill="none" stroke="#585857" stroke-width="0.3"/>
      <line id="Line_396-5" data-name="Line 396" y2="5" transform="translate(1057 -2769.5)" fill="none" stroke="#585857" stroke-width="0.3"/>
      <rect id="Rectangle_779-5" data-name="Rectangle 779" width="1.5" height="5.5" transform="translate(1058.5 -2769.8)" fill="#3e3e3d"/>
    </g>
    <line id="Line_418" data-name="Line 418" x2="7" transform="translate(1137.5 -2812.5)" fill="none" stroke="#000" stroke-width="0.3"/>
    <g id="Group_1430" data-name="Group 1430" transform="translate(15)">
      <g id="Rectangle_782" data-name="Rectangle 782" transform="translate(1110 -2828)" fill="#b4b3b3" stroke="#504f4f" stroke-width="0.5">
        <rect width="4" height="4.5" stroke="none"/>
        <rect x="0.25" y="0.25" width="3.5" height="4" fill="none"/>
      </g>
      <rect id="Rectangle_783" data-name="Rectangle 783" width="1.5" height="3.975" transform="translate(1109 -2827.8)" fill="#3e3e3d"/>
      <line id="Line_419" data-name="Line 419" x1="3" transform="translate(1110.5 -2825.756)" fill="none" stroke="#585857" stroke-width="0.3"/>
      <line id="Line_420" data-name="Line 420" y2="3.475" transform="translate(1112 -2827.5)" fill="none" stroke="#585857" stroke-width="0.3"/>
      <rect id="Rectangle_784" data-name="Rectangle 784" width="1.5" height="3.975" transform="translate(1113.5 -2827.8)" fill="#3e3e3d"/>
    </g>
    <g id="Group_1431" data-name="Group 1431" transform="translate(22)">
      <g id="Rectangle_782-2" data-name="Rectangle 782" transform="translate(1110 -2828)" fill="#b4b3b3" stroke="#504f4f" stroke-width="0.5">
        <rect width="4" height="4.5" stroke="none"/>
        <rect x="0.25" y="0.25" width="3.5" height="4" fill="none"/>
      </g>
      <rect id="Rectangle_783-2" data-name="Rectangle 783" width="1.5" height="3.975" transform="translate(1109 -2827.8)" fill="#3e3e3d"/>
      <line id="Line_419-2" data-name="Line 419" x1="3" transform="translate(1110.5 -2825.756)" fill="none" stroke="#585857" stroke-width="0.3"/>
      <line id="Line_420-2" data-name="Line 420" y2="3.475" transform="translate(1112 -2827.5)" fill="none" stroke="#585857" stroke-width="0.3"/>
      <rect id="Rectangle_784-2" data-name="Rectangle 784" width="1.5" height="3.975" transform="translate(1113.5 -2827.8)" fill="#3e3e3d"/>
    </g>
    <g id="Group_1432" data-name="Group 1432" transform="translate(29)">
      <g id="Rectangle_782-3" data-name="Rectangle 782" transform="translate(1110 -2828)" fill="#b4b3b3" stroke="#504f4f" stroke-width="0.5">
        <rect width="4" height="4.5" stroke="none"/>
        <rect x="0.25" y="0.25" width="3.5" height="4" fill="none"/>
      </g>
      <rect id="Rectangle_783-3" data-name="Rectangle 783" width="1.5" height="3.975" transform="translate(1109 -2827.8)" fill="#3e3e3d"/>
      <line id="Line_419-3" data-name="Line 419" x1="3" transform="translate(1110.5 -2825.756)" fill="none" stroke="#585857" stroke-width="0.3"/>
      <line id="Line_420-3" data-name="Line 420" y2="3.475" transform="translate(1112 -2827.5)" fill="none" stroke="#585857" stroke-width="0.3"/>
      <rect id="Rectangle_784-3" data-name="Rectangle 784" width="1.5" height="3.975" transform="translate(1113.5 -2827.8)" fill="#3e3e3d"/>
    </g>
    <g id="Group_1433" data-name="Group 1433" transform="translate(36)">
      <g id="Rectangle_782-4" data-name="Rectangle 782" transform="translate(1110 -2828)" fill="#b4b3b3" stroke="#504f4f" stroke-width="0.5">
        <rect width="4" height="4.5" stroke="none"/>
        <rect x="0.25" y="0.25" width="3.5" height="4" fill="none"/>
      </g>
      <rect id="Rectangle_783-4" data-name="Rectangle 783" width="1.5" height="3.975" transform="translate(1109 -2827.8)" fill="#3e3e3d"/>
      <line id="Line_419-4" data-name="Line 419" x1="3" transform="translate(1110.5 -2825.756)" fill="none" stroke="#585857" stroke-width="0.3"/>
      <line id="Line_420-4" data-name="Line 420" y2="3.475" transform="translate(1112 -2827.5)" fill="none" stroke="#585857" stroke-width="0.3"/>
      <rect id="Rectangle_784-4" data-name="Rectangle 784" width="1.5" height="3.975" transform="translate(1113.5 -2827.8)" fill="#3e3e3d"/>
    </g>
    <g id="Group_1434" data-name="Group 1434" transform="translate(43)">
      <g id="Rectangle_782-5" data-name="Rectangle 782" transform="translate(1110 -2828)" fill="#b4b3b3" stroke="#504f4f" stroke-width="0.5">
        <rect width="4" height="4.5" stroke="none"/>
        <rect x="0.25" y="0.25" width="3.5" height="4" fill="none"/>
      </g>
      <rect id="Rectangle_783-5" data-name="Rectangle 783" width="1.5" height="3.975" transform="translate(1109 -2827.8)" fill="#3e3e3d"/>
      <line id="Line_419-5" data-name="Line 419" x1="3" transform="translate(1110.5 -2825.756)" fill="none" stroke="#585857" stroke-width="0.3"/>
      <line id="Line_420-5" data-name="Line 420" y2="3.475" transform="translate(1112 -2827.5)" fill="none" stroke="#585857" stroke-width="0.3"/>
      <rect id="Rectangle_784-5" data-name="Rectangle 784" width="1.5" height="3.975" transform="translate(1113.5 -2827.8)" fill="#3e3e3d"/>
    </g>
    <g id="Rectangle_785" data-name="Rectangle 785" transform="translate(1119 -2843)" fill="#6a6868" stroke="#707070" stroke-width="1">
      <rect width="45" height="13" stroke="none"/>
      <rect x="0.5" y="0.5" width="44" height="12" fill="none"/>
    </g>
    <g id="Rectangle_786" data-name="Rectangle 786" transform="translate(1121 -2837.5)" fill="#919191" stroke="#919191" stroke-width="1">
      <rect width="3" height="4.5" stroke="none"/>
      <rect x="0.5" y="0.5" width="2" height="3.5" fill="none"/>
    </g>
    <g id="Ellipse_37" data-name="Ellipse 37" transform="translate(1121.8 -2837)" fill="#fff" stroke="#b24e36" stroke-width="1">
      <circle cx="0.75" cy="0.75" r="0.75" stroke="none"/>
      <circle cx="0.75" cy="0.75" r="0.25" fill="none"/>
    </g>
    <g id="Ellipse_38" data-name="Ellipse 38" transform="translate(1121.8 -2835)" fill="#fff" stroke="#b24e36" stroke-width="1">
      <circle cx="0.75" cy="0.75" r="0.75" stroke="none"/>
      <circle cx="0.75" cy="0.75" r="0.25" fill="none"/>
    </g>
    <g id="Rectangle_787" data-name="Rectangle 787" transform="translate(1159 -2837.5)" fill="#919191" stroke="#919191" stroke-width="1">
      <rect width="3" height="4.5" stroke="none"/>
      <rect x="0.5" y="0.5" width="2" height="3.5" fill="none"/>
    </g>
    <g id="Ellipse_39" data-name="Ellipse 39" transform="translate(1159.8 -2837)" fill="#fff" stroke="#b24e36" stroke-width="1">
      <circle cx="0.75" cy="0.75" r="0.75" stroke="none"/>
      <circle cx="0.75" cy="0.75" r="0.25" fill="none"/>
    </g>
    <g id="Ellipse_40" data-name="Ellipse 40" transform="translate(1159.8 -2835)" fill="#fff" stroke="#b24e36" stroke-width="1">
      <circle cx="0.75" cy="0.75" r="0.75" stroke="none"/>
      <circle cx="0.75" cy="0.75" r="0.25" fill="none"/>
    </g>
  </g>
</svg>
