<svg xmlns="http://www.w3.org/2000/svg" width="62.512" height="17.273" viewBox="0 0 62.512 17.273">
  <g id="Group_18" data-name="Group 18" transform="translate(-10.298 -7.792)">
    <g id="Group_17" data-name="Group 17">
      <g id="Group_16" data-name="Group 16">
        <g id="Group_15" data-name="Group 15" transform="translate(0 1.396)">
          <g id="Group_14" data-name="Group 14" transform="translate(10.298 6.395)">
            <g id="Group_13" data-name="Group 13" transform="translate(0 0)">
              <g id="Group_12" data-name="Group 12">
                <g id="Group_11" data-name="Group 11">
                  <g id="Group_10" data-name="Group 10">
                    <g id="Group_9" data-name="Group 9">
                      <g id="Group_8" data-name="Group 8">
                        <g id="Group_7" data-name="Group 7">
                          <g id="Group_6" data-name="Group 6">
                            <g id="Group_5" data-name="Group 5">
                              <g id="Group_4" data-name="Group 4">
                                <g id="Group_3" data-name="Group 3">
                                  <g id="Group_2" data-name="Group 2">
                                    <g id="Group_1" data-name="Group 1">
                                      <g id="Path_1" data-name="Path 1" transform="translate(10.702 0.006)" fill="#f8f4af">
                                        <path d="M -4.854358673095703 17.11621284484863 C -5.08366870880127 17.11621284484863 -10.47143936157227 17.0173225402832 -10.55128860473633 8.416691780090332 C -10.58007907867432 5.314832210540771 -9.88693904876709 3.027712345123291 -8.49109935760498 1.618862271308899 C -7.134879112243652 0.2499822378158569 -5.49570894241333 0.1436022371053696 -5.025629043579102 0.1436022371053696 C -4.921019077301025 0.1436022371053696 -4.861598968505859 0.1485222429037094 -4.861009120941162 0.1485722362995148 L -4.85469913482666 0.1491022408008575 L -4.848188877105713 0.1491222381591797 L 46.17218017578125 0.1491222381591797 L 46.17816925048828 0.1491222381591797 L 46.18413925170898 0.1486422419548035 C 46.18436050415039 0.1486322432756424 46.22758102416992 0.1453622430562973 46.30456924438477 0.1453622430562973 C 47.19132995605469 0.1453622430562973 51.61703109741211 0.544242262840271 51.65958023071289 8.418891906738281 C 51.67716979980469 11.67440223693848 50.92753219604492 14.08776187896729 49.43151092529297 15.59191226959229 C 47.9328498840332 17.09872245788574 46.18989944458008 17.11618232727051 46.17247009277344 17.11618232727051 L -4.848188877105713 17.11618232727051 L -4.854358673095703 17.11621284484863 Z" stroke="none"/>
                                        <path d="M -5.025638580322266 0.2936019897460938 C -5.481048583984375 0.2936019897460938 -7.069168090820312 0.3967819213867188 -8.384540557861328 1.724431991577148 C -9.751167297363281 3.103802680969238 -10.4296989440918 5.354931831359863 -10.40128707885742 8.415291786193848 C -10.32279968261719 16.8690128326416 -5.077617645263672 16.96621131896973 -4.8543701171875 16.96621131896973 L -4.848197937011719 16.96618270874023 L 46.17233276367188 16.96618270874023 C 46.189208984375 16.96614265441895 47.87702941894531 16.9454231262207 49.32950210571289 15.48176193237305 C 50.79344177246094 14.00655174255371 51.52693176269531 11.63053226470947 51.50958251953125 8.419702529907227 C 51.46780014038086 0.6869926452636719 47.16641998291016 0.2953529357910156 46.30457305908203 0.2953624725341797 C 46.23509979248047 0.2953624725341797 46.19605255126953 0.2981719970703125 46.19609832763672 0.2981719970703125 C 46.19609832763672 0.2981719970703125 46.19609832763672 0.2981719970703125 46.19610214233398 0.2981719970703125 L 46.17218017578125 0.2991218566894531 L -4.873470306396484 0.2980518341064453 C -4.874008178710938 0.2980117797851562 -4.928848266601562 0.2936019897460938 -5.025638580322266 0.2936019897460938 M -5.025642395019531 -0.006399154663085938 C -4.911685943603516 -0.006399154663085938 -4.848197937011719 -0.00087738037109375 -4.848197937011719 -0.00087738037109375 L 46.17218017578125 -0.00087738037109375 C 46.17218399047852 -0.000873565673828125 51.76167297363281 -0.4483890533447266 51.8095817565918 8.418082237243652 C 51.85747146606445 17.28454780578613 46.17209625244141 17.26617813110352 46.17218017578125 17.26618194580078 L -4.848197937011719 17.26618194580078 C -4.848163604736328 17.26618385314941 -10.61832809448242 17.35275650024414 -10.70127868652344 8.418082237243652 C -10.77564239501953 0.4083614349365234 -6.012527465820312 -0.006399154663085938 -5.025642395019531 -0.006399154663085938 Z" stroke="none" fill="#43503c"/>
                                      </g>
                                      <text id="East_Bay_St" data-name="East Bay St" transform="translate(9.702 3.208)" font-size="8" font-family="Futura-Medium, Futura" font-weight="500"><tspan x="0" y="8">East Bay St</tspan></text>
                                    </g>
                                  </g>
                                </g>
                              </g>
                            </g>
                          </g>
                        </g>
                      </g>
                    </g>
                  </g>
                </g>
              </g>
            </g>
          </g>
        </g>
      </g>
    </g>
  </g>
</svg>
