<svg xmlns="http://www.w3.org/2000/svg" width="90.035" height="25" viewBox="0 0 90.035 25">
  <g id="Group_11" data-name="Group 11" transform="translate(-10.298 -4.25)">
    <g id="Group_10" data-name="Group 10">
      <g id="Group_9" data-name="Group 9" transform="translate(10.298 4.25)">
        <g id="Group_8" data-name="Group 8">
          <g id="Group_7" data-name="Group 7">
            <g id="Group_6" data-name="Group 6">
              <g id="Group_5" data-name="Group 5">
                <g id="Group_4" data-name="Group 4">
                  <g id="Group_3" data-name="Group 3">
                    <g id="Group_2" data-name="Group 2">
                      <g id="Group_1" data-name="Group 1">
                        <g id="Path_1" data-name="Path 1" transform="translate(10.702 0.006)" fill="#f8f4af">
                          <path d="M -2.279673099517822 24.84360885620117 C -2.61262845993042 24.84360885620117 -10.43529510498047 24.69972038269043 -10.55090618133545 12.18562030792236 C -10.59265041351318 7.667275428771973 -9.583373069763184 4.336275577545166 -7.551106452941895 2.285153388977051 C -5.582273006439209 0.2980421781539917 -3.207350730895996 0.1436088532209396 -2.52636194229126 0.1436088532209396 C -2.372228622436523 0.1436088532209396 -2.284595251083374 0.1509644091129303 -2.28372859954834 0.1510421931743622 L -2.277339696884155 0.1515866369009018 L -2.270795106887817 0.1515977531671524 L 71.21299743652344 0.1515977531671524 L 71.21901702880859 0.1515977531671524 L 71.22501373291016 0.1511199623346329 C 71.22550201416016 0.1510755270719528 71.28960418701172 0.1461533010005951 71.40367126464844 0.1461533010005951 C 71.95881652832031 0.1461533010005951 73.90949249267578 0.2678199708461761 75.70278167724609 1.833331108093262 C 76.71673583984375 2.718508958816528 77.52277374267578 3.924720048904419 78.09848022460938 5.41847562789917 C 78.80341339111328 7.247530937194824 79.16811370849609 9.525064468383789 79.18242645263672 12.18782043457031 C 79.20790100097656 16.92919731140137 78.11688232421875 20.44319725036621 75.93965148925781 22.63220977783203 C 73.76523590087891 24.81837463378906 71.31658172607422 24.84356498718262 71.21340179443359 24.84356498718262 L -2.270795106887817 24.84356498718262 L -2.279673099517822 24.84360885620117 Z" stroke="none"/>
                          <path d="M -2.5263671875 0.293609619140625 C -3.192680358886719 0.293609619140625 -5.516563415527344 0.4448432922363281 -7.444557189941406 2.390726089477539 C -9.447616577148438 4.412374496459961 -10.44227600097656 7.707386016845703 -10.40091705322266 12.18423271179199 C -10.28665924072266 24.5514087677002 -2.6065673828125 24.6936092376709 -2.279685974121094 24.6936092376709 L -2.270805358886719 24.69356155395508 L 71.21338653564453 24.69356155395508 C 71.23805999755859 24.69355010986328 73.70507049560547 24.66735076904297 75.83488464355469 22.52483177185059 C 77.98187255859375 20.36502075195312 79.05767822265625 16.88742065429688 79.03242492675781 12.18862056732178 C 78.97157287597656 0.8694438934326172 72.66690063476562 0.2961387634277344 71.40367126464844 0.2961502075195312 C 71.29690551757812 0.2961502075195312 71.23704528808594 0.3006324768066406 71.23704528808594 0.3006324768066406 L 71.21298980712891 0.3015975952148438 L -2.296417236328125 0.3005027770996094 C -2.297225952148438 0.3004322052001953 -2.38018798828125 0.293609619140625 -2.5263671875 0.293609619140625 M -2.526374816894531 -0.006395339965820312 C -2.36224365234375 -0.006395339965820312 -2.270805358886719 0.001596450805664062 -2.270805358886719 0.001596450805664062 L 71.21298980712891 0.001596450805664062 C 71.21298217773438 0.001600265502929688 79.26342010498047 -0.6461219787597656 79.33242034912109 12.18700885772705 C 79.40139770507812 25.0201244354248 71.21299743652344 24.99356842041016 71.21298980712891 24.99356269836426 L -2.270805358886719 24.99356269836426 C -2.271034240722656 24.99356460571289 -10.58142852783203 25.11867523193359 -10.70090484619141 12.18700885772705 C -10.80799865722656 0.5939159393310547 -3.947769165039062 -0.006395339965820312 -2.526374816894531 -0.006395339965820312 Z" stroke="none" fill="#43503c"/>
                        </g>
                        <text id="Rainbow_Row" data-name="Rainbow Row" transform="translate(7.702 5.25)" font-size="12" font-family="Futura-Medium, Futura" font-weight="500"><tspan x="0" y="12">Rainbow Row</tspan></text>
                      </g>
                    </g>
                  </g>
                </g>
              </g>
            </g>
          </g>
        </g>
      </g>
    </g>
  </g>
</svg>
