<svg xmlns="http://www.w3.org/2000/svg" width="35.502" height="42.5" viewBox="0 0 35.502 42.5">
  <g id="Group_10" data-name="Group 10" transform="translate(-29.5 -13.5)">
    <g id="Group_9" data-name="Group 9">
      <g id="Group_8" data-name="Group 8">
        <g id="Rectangle_756" data-name="Rectangle 756" transform="translate(50 20)" fill="#fff" stroke="#a75555" stroke-width="1">
          <rect width="15" height="1" stroke="none"/>
          <rect x="0.5" y="0.5" width="14" fill="none"/>
        </g>
        <g id="Rectangle_754" data-name="Rectangle 754" transform="translate(44 14)" fill="#a75555" stroke="#000" stroke-width="0.3">
          <rect width="7" height="6" stroke="none"/>
          <rect x="0.15" y="0.15" width="6.7" height="5.7" fill="none"/>
        </g>
        <g id="Rectangle_753" data-name="Rectangle 753" transform="translate(39 15.5)" fill="#fff" stroke="#000" stroke-width="0.5">
          <rect width="10" height="4" stroke="none"/>
          <rect x="0.25" y="0.25" width="9.5" height="3.5" fill="none"/>
        </g>
        <g id="Rectangle_752" data-name="Rectangle 752" transform="translate(42 14)" fill="#a75555" stroke="#000" stroke-width="0.3">
          <rect width="7" height="2" stroke="none"/>
          <rect x="0.15" y="0.15" width="6.7" height="1.7" fill="none"/>
        </g>
        <g id="Rectangle_743" data-name="Rectangle 743" transform="translate(30.5 21)" fill="#c5dbf4" stroke="#000" stroke-width="0.5">
          <rect width="22" height="35" stroke="none"/>
          <rect x="0.25" y="0.25" width="21.5" height="34.5" fill="none"/>
        </g>
        <line id="Line_59" data-name="Line 59" x2="21" transform="translate(31 41.5)" fill="none" stroke="#788798" stroke-width="0.5"/>
        <line id="Line_60" data-name="Line 60" x2="21" transform="translate(31 42.8)" fill="none" stroke="#788798" stroke-width="0.5"/>
        <line id="Line_61" data-name="Line 61" x2="21" transform="translate(31 40.2)" fill="none" stroke="#788798" stroke-width="0.5"/>
        <line id="Line_62" data-name="Line 62" x2="21" transform="translate(31 49.5)" fill="none" stroke="#788798" stroke-width="0.5"/>
        <line id="Line_63" data-name="Line 63" x2="21" transform="translate(31 50.8)" fill="none" stroke="#788798" stroke-width="0.5"/>
        <line id="Line_64" data-name="Line 64" x2="21" transform="translate(31 48.2)" fill="none" stroke="#788798" stroke-width="0.5"/>
        <line id="Line_65" data-name="Line 65" x2="21" transform="translate(31 45.5)" fill="none" stroke="#788798" stroke-width="0.5"/>
        <line id="Line_66" data-name="Line 66" x2="21" transform="translate(31 46.8)" fill="none" stroke="#788798" stroke-width="0.5"/>
        <line id="Line_67" data-name="Line 67" x2="21" transform="translate(31 44.2)" fill="none" stroke="#788798" stroke-width="0.5"/>
        <g id="Polygon_2" data-name="Polygon 2" transform="translate(29.5 13.5)" fill="#c5dbf4">
          <path d="M 22.84402084350586 7.650000095367432 L 1.155980944633484 7.650000095367432 L 12.00000095367432 0.4206533432006836 L 22.84402084350586 7.650000095367432 Z" stroke="none"/>
          <path d="M 12.00000095367432 0.8413000106811523 L 2.31195068359375 7.300000190734863 L 21.68805122375488 7.300000190734863 L 12.00000095367432 0.8413000106811523 M 12.00000095367432 0 L 24 8 L 1.9073486328125e-06 8 L 12.00000095367432 0 Z" stroke="none"/>
        </g>
        <path id="Path_2" data-name="Path 2" d="M8.8,0" transform="translate(30.5 20.4)" fill="none" stroke="#aa5a5a" stroke-width="1.5"/>
        <line id="Line_47" data-name="Line 47" x2="21" transform="translate(31 29.5)" fill="none" stroke="#788798" stroke-width="0.5"/>
        <line id="Line_48" data-name="Line 48" x2="21" transform="translate(31 30.8)" fill="none" stroke="#788798" stroke-width="0.5"/>
        <line id="Line_49" data-name="Line 49" x2="21" transform="translate(31 28.2)" fill="none" stroke="#788798" stroke-width="0.5"/>
        <line id="Line_50" data-name="Line 50" x2="21" transform="translate(31 25.5)" fill="none" stroke="#788798" stroke-width="0.5"/>
        <line id="Line_51" data-name="Line 51" x2="21" transform="translate(31 26.8)" fill="none" stroke="#788798" stroke-width="0.5"/>
        <line id="Line_52" data-name="Line 52" x2="21" transform="translate(31 24.2)" fill="none" stroke="#788798" stroke-width="0.5"/>
        <g id="Group_3" data-name="Group 3" transform="translate(10.5)">
          <g id="Group_1" data-name="Group 1" transform="translate(31.5 23)">
            <g id="Rectangle_744" data-name="Rectangle 744" transform="translate(1.5)" fill="#656565" stroke="#fff" stroke-width="0.5">
              <rect width="5" height="8" stroke="none"/>
              <rect x="0.25" y="0.25" width="4.5" height="7.5" fill="none"/>
            </g>
            <g id="Rectangle_745" data-name="Rectangle 745" fill="#fff" stroke="#000" stroke-width="1">
              <rect width="2" height="7.967" stroke="none"/>
              <rect x="0.5" y="0.5" width="1" height="6.967" fill="none"/>
            </g>
            <g id="Rectangle_746" data-name="Rectangle 746" transform="translate(6)" fill="#fff" stroke="#000" stroke-width="1">
              <rect width="2" height="7.967" stroke="none"/>
              <rect x="0.5" y="0.5" width="1" height="6.967" fill="none"/>
            </g>
            <line id="Line_1" data-name="Line 1" y2="6.967" transform="translate(4 0.5)" fill="none" stroke="#fff" stroke-width="0.5"/>
            <line id="Line_2" data-name="Line 2" x2="4" transform="translate(2 3.983)" fill="none" stroke="#fff" stroke-width="0.5"/>
          </g>
          <line id="Line_3" data-name="Line 3" y2="7.967" transform="translate(33.5 23)" fill="none" stroke="#fff" stroke-width="0.5"/>
          <line id="Line_4" data-name="Line 4" y2="7.967" transform="translate(37.5 23)" fill="none" stroke="#fff" stroke-width="0.5"/>
        </g>
        <g id="Group_4" data-name="Group 4" transform="translate(1.5)">
          <g id="Group_1-2" data-name="Group 1" transform="translate(31.5 23)">
            <g id="Rectangle_744-2" data-name="Rectangle 744" transform="translate(1.5)" fill="#656565" stroke="#fff" stroke-width="0.5">
              <rect width="5" height="8" stroke="none"/>
              <rect x="0.25" y="0.25" width="4.5" height="7.5" fill="none"/>
            </g>
            <g id="Rectangle_745-2" data-name="Rectangle 745" fill="#fff" stroke="#000" stroke-width="1">
              <rect width="2" height="7.967" stroke="none"/>
              <rect x="0.5" y="0.5" width="1" height="6.967" fill="none"/>
            </g>
            <g id="Rectangle_746-2" data-name="Rectangle 746" transform="translate(6)" fill="#fff" stroke="#000" stroke-width="1">
              <rect width="2" height="7.967" stroke="none"/>
              <rect x="0.5" y="0.5" width="1" height="6.967" fill="none"/>
            </g>
            <line id="Line_1-2" data-name="Line 1" y2="6.967" transform="translate(4 0.5)" fill="none" stroke="#fff" stroke-width="0.5"/>
            <line id="Line_2-2" data-name="Line 2" x2="4" transform="translate(2 3.983)" fill="none" stroke="#fff" stroke-width="0.5"/>
          </g>
          <line id="Line_3-2" data-name="Line 3" y2="7.967" transform="translate(33.5 23)" fill="none" stroke="#fff" stroke-width="0.5"/>
          <line id="Line_4-2" data-name="Line 4" y2="7.967" transform="translate(37.5 23)" fill="none" stroke="#fff" stroke-width="0.5"/>
        </g>
        <line id="Line_56" data-name="Line 56" x2="21" transform="translate(31 37.5)" fill="none" stroke="#788798" stroke-width="0.5"/>
        <line id="Line_57" data-name="Line 57" x2="21" transform="translate(31 38.8)" fill="none" stroke="#788798" stroke-width="0.5"/>
        <line id="Line_58" data-name="Line 58" x2="21" transform="translate(31 36.2)" fill="none" stroke="#788798" stroke-width="0.5"/>
        <g id="Group_5" data-name="Group 5" transform="translate(1.5 13)">
          <g id="Group_1-3" data-name="Group 1" transform="translate(31.5 23)">
            <g id="Rectangle_744-3" data-name="Rectangle 744" transform="translate(1.5)" fill="#656565" stroke="#fff" stroke-width="0.5">
              <rect width="5" height="8" stroke="none"/>
              <rect x="0.25" y="0.25" width="4.5" height="7.5" fill="none"/>
            </g>
            <g id="Rectangle_745-3" data-name="Rectangle 745" fill="#fff" stroke="#000" stroke-width="1">
              <rect width="2" height="7.967" stroke="none"/>
              <rect x="0.5" y="0.5" width="1" height="6.967" fill="none"/>
            </g>
            <g id="Rectangle_746-3" data-name="Rectangle 746" transform="translate(6)" fill="#fff" stroke="#000" stroke-width="1">
              <rect width="2" height="7.967" stroke="none"/>
              <rect x="0.5" y="0.5" width="1" height="6.967" fill="none"/>
            </g>
            <line id="Line_1-3" data-name="Line 1" y2="6.967" transform="translate(4 0.5)" fill="none" stroke="#fff" stroke-width="0.5"/>
            <line id="Line_2-3" data-name="Line 2" x2="4" transform="translate(2 3.983)" fill="none" stroke="#fff" stroke-width="0.5"/>
          </g>
          <line id="Line_3-3" data-name="Line 3" y2="7.967" transform="translate(33.5 23)" fill="none" stroke="#fff" stroke-width="0.5"/>
          <line id="Line_4-3" data-name="Line 4" y2="7.967" transform="translate(37.5 23)" fill="none" stroke="#fff" stroke-width="0.5"/>
        </g>
        <line id="Line_68" data-name="Line 68" x2="21" transform="translate(31 53.5)" fill="none" stroke="#788798" stroke-width="0.5"/>
        <line id="Line_69" data-name="Line 69" x2="21" transform="translate(31 54.8)" fill="none" stroke="#788798" stroke-width="0.5"/>
        <line id="Line_70" data-name="Line 70" x2="21" transform="translate(31 52.2)" fill="none" stroke="#788798" stroke-width="0.5"/>
        <g id="Group_6" data-name="Group 6" transform="translate(10.5 13)">
          <g id="Group_1-4" data-name="Group 1" transform="translate(31.5 23)">
            <g id="Rectangle_744-4" data-name="Rectangle 744" transform="translate(1.5)" fill="#656565" stroke="#fff" stroke-width="0.5">
              <rect width="5" height="8" stroke="none"/>
              <rect x="0.25" y="0.25" width="4.5" height="7.5" fill="none"/>
            </g>
            <g id="Rectangle_745-4" data-name="Rectangle 745" fill="#fff" stroke="#000" stroke-width="1">
              <rect width="2" height="7.967" stroke="none"/>
              <rect x="0.5" y="0.5" width="1" height="6.967" fill="none"/>
            </g>
            <g id="Rectangle_746-4" data-name="Rectangle 746" transform="translate(6)" fill="#fff" stroke="#000" stroke-width="1">
              <rect width="2" height="7.967" stroke="none"/>
              <rect x="0.5" y="0.5" width="1" height="6.967" fill="none"/>
            </g>
            <line id="Line_1-4" data-name="Line 1" y2="6.967" transform="translate(4 0.5)" fill="none" stroke="#fff" stroke-width="0.5"/>
            <line id="Line_2-4" data-name="Line 2" x2="4" transform="translate(2 3.983)" fill="none" stroke="#fff" stroke-width="0.5"/>
          </g>
          <line id="Line_3-4" data-name="Line 3" y2="7.967" transform="translate(33.5 23)" fill="none" stroke="#fff" stroke-width="0.5"/>
          <line id="Line_4-4" data-name="Line 4" y2="7.967" transform="translate(37.5 23)" fill="none" stroke="#fff" stroke-width="0.5"/>
        </g>
        <g id="Group_7" data-name="Group 7" transform="translate(1.5 25.701)">
          <g id="Group_1-5" data-name="Group 1" transform="translate(31.5 23)">
            <g id="Rectangle_744-5" data-name="Rectangle 744" transform="translate(1.5)" fill="#656565" stroke="#fff" stroke-width="0.5">
              <rect width="5" height="5.299" stroke="none"/>
              <rect x="0.25" y="0.25" width="4.5" height="4.799" fill="none"/>
            </g>
            <g id="Rectangle_745-5" data-name="Rectangle 745" fill="#fff" stroke="#000" stroke-width="1">
              <rect width="2" height="5.266" stroke="none"/>
              <rect x="0.5" y="0.5" width="1" height="4.266" fill="none"/>
            </g>
            <g id="Rectangle_746-5" data-name="Rectangle 746" transform="translate(6)" fill="#fff" stroke="#000" stroke-width="1">
              <rect width="2" height="5.266" stroke="none"/>
              <rect x="0.5" y="0.5" width="1" height="4.266" fill="none"/>
            </g>
            <line id="Line_1-5" data-name="Line 1" y2="4.266" transform="translate(4 0.5)" fill="none" stroke="#fff" stroke-width="0.5"/>
            <line id="Line_2-5" data-name="Line 2" x2="4" transform="translate(2 2.639)" fill="none" stroke="#fff" stroke-width="0.5"/>
          </g>
          <line id="Line_3-5" data-name="Line 3" y2="5.266" transform="translate(33.5 23)" fill="none" stroke="#fff" stroke-width="0.5"/>
          <line id="Line_4-5" data-name="Line 4" y2="5.266" transform="translate(37.5 23)" fill="none" stroke="#fff" stroke-width="0.5"/>
        </g>
        <g id="Rectangle_747" data-name="Rectangle 747" transform="translate(52 36)" fill="#c5dbf4" stroke="#000" stroke-width="0.5">
          <rect width="12" height="20" stroke="none"/>
          <rect x="0.25" y="0.25" width="11.5" height="19.5" fill="none"/>
        </g>
        <g id="Path_3" data-name="Path 3" transform="translate(52 33.5)" fill="#fff">
          <path d="M 11.86070728302002 2.750003337860107 L 0.2500014007091522 2.750003337860107 L 0.2500014007091522 0.8314146399497986 L 12.56983852386475 1.60410487651825 L 11.86070728302002 2.750003337860107 Z" stroke="none"/>
          <path d="M 0.5000009536743164 1.097585916519165 L 0.5000009536743164 2.500003337860107 L 11.72142887115479 2.500003337860107 L 12.13761043548584 1.827487468719482 L 0.5000009536743164 1.097585916519165 M 9.5367431640625e-07 0.5652432441711426 L 13.00208187103271 1.380723237991333 L 12.00000190734863 3.000003337860107 L 9.5367431640625e-07 3.000003337860107 L 9.5367431640625e-07 0.5652432441711426 Z" stroke="none" fill="#707070"/>
        </g>
        <line id="Line_5" data-name="Line 5" x2="11" transform="translate(52.5 32)" fill="none" stroke="#707070" stroke-width="0.5"/>
        <g id="Rectangle_748" data-name="Rectangle 748" transform="translate(63 24)" fill="#fff" stroke="#707070" stroke-width="0.5">
          <rect width="2" height="11" stroke="none"/>
          <rect x="0.25" y="0.25" width="1.5" height="10.5" fill="none"/>
        </g>
        <g id="Rectangle_749" data-name="Rectangle 749" transform="translate(52 23)" fill="#fff" stroke="#707070" stroke-width="0.5">
          <rect width="13" height="2" stroke="none"/>
          <rect x="0.25" y="0.25" width="12.5" height="1.5" fill="none"/>
        </g>
        <line id="Line_6" data-name="Line 6" y2="2.5" transform="translate(53.5 32)" fill="none" stroke="#707070" stroke-width="0.5"/>
        <line id="Line_7" data-name="Line 7" y2="2.5" transform="translate(54.5 32)" fill="none" stroke="#707070" stroke-width="0.5"/>
        <line id="Line_8" data-name="Line 8" y2="2.5" transform="translate(55.5 32)" fill="none" stroke="#707070" stroke-width="0.5"/>
        <line id="Line_9" data-name="Line 9" y2="2.5" transform="translate(56.5 32)" fill="none" stroke="#707070" stroke-width="0.5"/>
        <line id="Line_10" data-name="Line 10" y2="2.5" transform="translate(57.5 32)" fill="none" stroke="#707070" stroke-width="0.5"/>
        <line id="Line_11" data-name="Line 11" y2="2.5" transform="translate(58.5 32)" fill="none" stroke="#707070" stroke-width="0.5"/>
        <line id="Line_12" data-name="Line 12" y2="2.6" transform="translate(59.5 32)" fill="none" stroke="#707070" stroke-width="0.5"/>
        <line id="Line_13" data-name="Line 13" y2="2.6" transform="translate(60.5 32)" fill="none" stroke="#707070" stroke-width="0.5"/>
        <line id="Line_14" data-name="Line 14" y2="2.7" transform="translate(61.5 32)" fill="none" stroke="#707070" stroke-width="0.5"/>
        <line id="Line_15" data-name="Line 15" y2="2.8" transform="translate(62.5 32)" fill="none" stroke="#707070" stroke-width="0.5"/>
        <line id="Line_16" data-name="Line 16" y2="2.5" transform="translate(52.5 32)" fill="none" stroke="#707070" stroke-width="0.5"/>
        <line id="Line_17" data-name="Line 17" y1="5" x2="12" transform="translate(41.5 46.5)" fill="none" stroke="#000" stroke-width="0.5"/>
        <line id="Line_18" data-name="Line 18" y1="5" x2="12" transform="translate(41.5 49.5)" fill="none" stroke="#000" stroke-width="0.5"/>
        <line id="Line_19" data-name="Line 19" y2="4.5" transform="translate(41.5 51.2)" fill="none" stroke="#000" stroke-width="0.5"/>
        <line id="Line_20" data-name="Line 20" y2="3.5" transform="translate(53.5 46.2)" fill="none" stroke="#000" stroke-width="0.5"/>
        <line id="Line_21" data-name="Line 21" y2="3" transform="translate(42.5 51)" fill="none" stroke="#000" stroke-width="0.5"/>
        <line id="Line_22" data-name="Line 22" y2="3" transform="translate(43.5 50.5)" fill="none" stroke="#000" stroke-width="0.5"/>
        <line id="Line_23" data-name="Line 23" y2="3" transform="translate(44.5 50.3)" fill="none" stroke="#000" stroke-width="0.5"/>
        <line id="Line_24" data-name="Line 24" y2="3" transform="translate(45.5 50)" fill="none" stroke="#000" stroke-width="0.5"/>
        <line id="Line_25" data-name="Line 25" y2="3" transform="translate(46.5 49.5)" fill="none" stroke="#000" stroke-width="0.5"/>
        <line id="Line_26" data-name="Line 26" y2="3" transform="translate(47.5 49)" fill="none" stroke="#000" stroke-width="0.5"/>
        <line id="Line_27" data-name="Line 27" y2="3" transform="translate(48.5 48.5)" fill="none" stroke="#000" stroke-width="0.5"/>
        <line id="Line_28" data-name="Line 28" y2="3" transform="translate(49.5 48)" fill="none" stroke="#000" stroke-width="0.5"/>
        <line id="Line_29" data-name="Line 29" y2="3" transform="translate(50.5 47.8)" fill="none" stroke="#000" stroke-width="0.5"/>
        <line id="Line_30" data-name="Line 30" y2="3" transform="translate(51.5 47.5)" fill="none" stroke="#000" stroke-width="0.5"/>
        <line id="Line_31" data-name="Line 31" y2="3" transform="translate(52.5 47)" fill="none" stroke="#000" stroke-width="0.5"/>
        <g id="Rectangle_751" data-name="Rectangle 751" transform="translate(55 39)" fill="#484747" stroke="#fff" stroke-width="0.7">
          <rect width="6" height="10" stroke="none"/>
          <rect x="0.35" y="0.35" width="5.3" height="9.3" fill="none"/>
        </g>
        <g id="Rectangle_750" data-name="Rectangle 750" transform="translate(54 46)" fill="none" stroke="#000" stroke-width="0.5">
          <rect width="10" height="3.5" stroke="none"/>
          <rect x="0.25" y="0.25" width="9.5" height="3" fill="none"/>
        </g>
        <line id="Line_32" data-name="Line 32" y2="3" transform="translate(55.3 46)" fill="none" stroke="#000" stroke-width="0.5"/>
        <line id="Line_33" data-name="Line 33" y2="3" transform="translate(56.3 46)" fill="none" stroke="#000" stroke-width="0.5"/>
        <line id="Line_34" data-name="Line 34" y2="3" transform="translate(57.3 46)" fill="none" stroke="#000" stroke-width="0.5"/>
        <line id="Line_35" data-name="Line 35" y2="3" transform="translate(58.3 46)" fill="none" stroke="#000" stroke-width="0.5"/>
        <line id="Line_36" data-name="Line 36" y2="3" transform="translate(59.3 46)" fill="none" stroke="#000" stroke-width="0.5"/>
        <line id="Line_37" data-name="Line 37" y2="3" transform="translate(60.3 46)" fill="none" stroke="#000" stroke-width="0.5"/>
        <line id="Line_38" data-name="Line 38" y2="3" transform="translate(61.3 46)" fill="none" stroke="#000" stroke-width="0.5"/>
        <line id="Line_39" data-name="Line 39" y2="3" transform="translate(62.3 46)" fill="none" stroke="#000" stroke-width="0.5"/>
        <line id="Line_40" data-name="Line 40" y2="3" transform="translate(63.3 46)" fill="none" stroke="#000" stroke-width="0.5"/>
        <line id="Line_41" data-name="Line 41" x2="7" transform="translate(54.5 38.5)" fill="none" stroke="#fff" stroke-width="1"/>
        <g id="Rectangle_755" data-name="Rectangle 755" transform="translate(52 21)" fill="#c5dbf4" stroke="#707070" stroke-width="0.5">
          <rect width="13" height="2.5" stroke="none"/>
          <rect x="0.25" y="0.25" width="12.5" height="2" fill="none"/>
        </g>
        <g id="Rectangle_757" data-name="Rectangle 757" transform="translate(55 48)" fill="#363636" stroke="#5d8d05" stroke-width="1.5">
          <path d="M3,0H3A3,3,0,0,1,6,3V8A0,0,0,0,1,6,8H0A0,0,0,0,1,0,8V3A3,3,0,0,1,3,0Z" stroke="none"/>
          <path d="M3,.75H3A2.25,2.25,0,0,1,5.25,3V6.5a.75.75,0,0,1-.75.75h-3A.75.75,0,0,1,.75,6.5V3A2.25,2.25,0,0,1,3,.75Z" fill="none"/>
        </g>
        <line id="Line_42" data-name="Line 42" y2="2" transform="translate(57.5 24.5)" fill="none" stroke="#707070" stroke-width="0.5"/>
        <line id="Line_43" data-name="Line 43" x1="4" transform="translate(55.5 26.5)" fill="none" stroke="#707070" stroke-width="0.5"/>
        <line id="Line_44" data-name="Line 44" x2="21" transform="translate(31 33.5)" fill="none" stroke="#788798" stroke-width="0.5"/>
        <line id="Line_45" data-name="Line 45" x2="21" transform="translate(31 34.8)" fill="none" stroke="#788798" stroke-width="0.5"/>
        <line id="Line_46" data-name="Line 46" x2="21" transform="translate(31 32.2)" fill="none" stroke="#788798" stroke-width="0.5"/>
        <line id="Line_53" data-name="Line 53" x2="23" transform="translate(29.5 21.8)" fill="none" stroke="#fff" stroke-width="0.5"/>
        <line id="Line_54" data-name="Line 54" x2="21" transform="translate(31 22.8)" fill="none" stroke="#788798" stroke-width="0.5"/>
        <line id="Line_55" data-name="Line 55" x2="18" transform="translate(32.5 20.2)" fill="none" stroke="#788798" stroke-width="0.5"/>
        <line id="Line_71" data-name="Line 71" x2="15" transform="translate(34 19.2)" fill="none" stroke="#788798" stroke-width="0.5"/>
        <line id="Line_72" data-name="Line 72" x2="12" transform="translate(35.5 18.2)" fill="none" stroke="#788798" stroke-width="0.5"/>
        <line id="Line_73" data-name="Line 73" x2="9" transform="translate(37 17.2)" fill="none" stroke="#788798" stroke-width="0.5"/>
        <line id="Line_74" data-name="Line 74" x2="6" transform="translate(38.5 16.2)" fill="none" stroke="#788798" stroke-width="0.5"/>
        <line id="Line_75" data-name="Line 75" x2="3" transform="translate(40 15.2)" fill="none" stroke="#788798" stroke-width="0.5"/>
      </g>
    </g>
  </g>
</svg>
