<svg xmlns="http://www.w3.org/2000/svg" width="29.945" height="10.725" viewBox="0 0 29.945 10.725">
  <g id="Group_22" data-name="Group 22" transform="translate(-12.076 -8.319)">
    <g id="Group_21" data-name="Group 21">
      <g id="Group_20" data-name="Group 20" transform="translate(12.076 8.319)">
        <g id="Group_19" data-name="Group 19">
          <g id="Group_17" data-name="Group 17" transform="translate(0)">
            <g id="Group_16" data-name="Group 16">
              <g id="Group_15" data-name="Group 15">
                <g id="Group_14" data-name="Group 14">
                  <g id="Group_13" data-name="Group 13">
                    <g id="Group_12" data-name="Group 12">
                      <g id="Group_11" data-name="Group 11">
                        <g id="Group_10" data-name="Group 10">
                          <g id="Group_9" data-name="Group 9">
                            <g id="Group_8" data-name="Group 8">
                              <g id="Group_7" data-name="Group 7">
                                <g id="Group_6" data-name="Group 6">
                                  <g id="Group_5" data-name="Group 5">
                                    <g id="Group_4" data-name="Group 4">
                                      <g id="Group_3" data-name="Group 3">
                                        <g id="Group_2" data-name="Group 2">
                                          <g id="Group_1" data-name="Group 1">
                                            <g id="Group_18" data-name="Group 18">
                                              <g id="Path_1" data-name="Path 1" transform="translate(10.702 0.006)" fill="#f8f4af">
                                                <path d="M -7.996909618377686 10.56863975524902 C -8.099720001220703 10.56863975524902 -10.51519966125488 10.50788021087646 -10.55173969268799 5.223549842834473 C -10.56651973724365 3.08735990524292 -10.15351009368896 1.534479856491089 -9.357349395751953 0.7327898144721985 C -8.829239845275879 0.2010098248720169 -8.285439491271973 0.1435998231172562 -8.076149940490723 0.1435998231172562 C -8.034520149230957 0.1435998231172562 -8.010990142822266 0.1460698246955872 -8.010759353637695 0.1460998207330704 L -8.002789497375488 0.146949827671051 L -7.994059562683105 0.1470298320055008 L 15.60833072662354 0.1470298320055008 L 15.61636066436768 0.1470298320055008 L 15.62435054779053 0.1461698263883591 C 15.62685012817383 0.145939826965332 15.64291000366211 0.1446898281574249 15.66956996917725 0.1446898281574249 C 15.83594036102295 0.1446898281574249 16.4212703704834 0.1942598223686218 16.96824073791504 0.8320198059082031 C 17.6884593963623 1.671799778938293 18.05788040161133 3.149879932403564 18.06623077392578 5.225189685821533 C 18.07739067077637 7.996469974517822 17.40079116821289 9.303699493408203 16.83123016357422 9.91232967376709 C 16.22773933410645 10.55720996856689 15.6331901550293 10.56845951080322 15.60818004608154 10.56861972808838 L -7.994059562683105 10.56861972808838 L -7.996909618377686 10.56863975524902 Z" stroke="none"/>
                                                <path d="M -8.076149940490723 0.2936000823974609 C -8.266669273376465 0.2936000823974609 -8.762509346008301 0.3466901779174805 -9.250920295715332 0.8384895324707031 C -9.786028861999512 1.377320289611816 -10.42006015777588 2.575289726257324 -10.40174961090088 5.222519874572754 C -10.38292980194092 7.942729949951172 -9.714749336242676 9.214550018310547 -9.157528877258301 9.80247974395752 C -8.58120059967041 10.41057014465332 -8.020480155944824 10.41860008239746 -8.000309944152832 10.4186897277832 L -7.994059562683105 10.41862010955811 L 15.60632038116455 10.41862964630127 C 15.62950992584229 10.41821002960205 16.18064117431641 10.4011697769165 16.74097061157227 9.789019584655762 C 17.28311920166016 9.19672966003418 17.92710113525391 7.924269676208496 17.91622924804688 5.225800037384033 C 17.90600967407227 2.68641996383667 17.33314895629883 1.487919807434082 16.8543815612793 0.9296693801879883 C 16.34907150268555 0.340479850769043 15.8197603225708 0.2946901321411133 15.66956996917725 0.2946901321411133 C 15.6525707244873 0.2946901321411133 15.64138031005859 0.2952795028686523 15.64041996002197 0.2953100204467773 L 15.60833072662354 0.2970294952392578 L -8.026009559631348 0.2953195571899414 C -8.026179313659668 0.2952995300292969 -8.044129371643066 0.2936000823974609 -8.076149940490723 0.2936000823974609 M -8.076146125793457 -0.006398200988769531 C -8.023430824279785 -0.006398200988769531 -7.994059562683105 -0.002969741821289062 -7.994059562683105 -0.002969741821289062 L 15.60833072662354 -0.002969741821289062 C 15.60833072662354 -0.002971649169921875 18.19407081604004 -0.2808427810668945 18.21623039245605 5.224589824676514 C 18.23839950561523 10.73011302947998 15.60833835601807 10.71861743927002 15.60833072662354 10.71862030029297 L -7.994059562683105 10.71862030029297 C -7.99407958984375 10.71861934661865 -10.66336917877197 10.77231979370117 -10.70173931121826 5.224589824676514 C -10.73614597320557 0.2511367797851562 -8.532689094543457 -0.006398200988769531 -8.076146125793457 -0.006398200988769531 Z" stroke="none" fill="#43503c"/>
                                              </g>
                                              <text id="Boston" transform="translate(3.945 0.981)" font-size="7" font-family="Futura-Medium, Futura" font-weight="500"><tspan x="0" y="7">Boston</tspan></text>
                                            </g>
                                          </g>
                                        </g>
                                      </g>
                                    </g>
                                  </g>
                                </g>
                              </g>
                            </g>
                          </g>
                        </g>
                      </g>
                    </g>
                  </g>
                </g>
              </g>
            </g>
          </g>
        </g>
      </g>
    </g>
  </g>
</svg>
