<svg xmlns="http://www.w3.org/2000/svg" width="14.27" height="7.039" viewBox="0 0 14.27 7.039">
  <g id="Group_17" data-name="Group 17" transform="translate(-12.076 -8.319)">
    <g id="Group_16" data-name="Group 16" transform="translate(12.076 8.319)">
      <g id="Group_15" data-name="Group 15" transform="translate(0)">
        <g id="Group_14" data-name="Group 14">
          <g id="Group_13" data-name="Group 13">
            <g id="Group_12" data-name="Group 12">
              <g id="Group_11" data-name="Group 11">
                <g id="Group_10" data-name="Group 10">
                  <g id="Group_9" data-name="Group 9">
                    <g id="Group_8" data-name="Group 8">
                      <g id="Group_7" data-name="Group 7">
                        <g id="Group_6" data-name="Group 6">
                          <g id="Group_5" data-name="Group 5">
                            <g id="Group_4" data-name="Group 4">
                              <g id="Group_3" data-name="Group 3">
                                <g id="Group_2" data-name="Group 2">
                                  <g id="Group_1" data-name="Group 1">
                                    <g id="Path_1" data-name="Path 1" transform="translate(10.702 0.006)" fill="#f8f4af">
                                      <path d="M 2.278940916061401 6.882869243621826 L -9.365798950195312 6.882839202880859 L -9.366952896118164 6.882847785949707 C -9.382637977600098 6.882482051849365 -10.5342903137207 6.821229457855225 -10.55193901062012 3.426119327545166 C -10.56203937530518 1.484889388084412 -10.18028926849365 0.6915294528007507 -9.858248710632324 0.3678194284439087 C -9.656939506530762 0.1654594391584396 -9.475129127502441 0.1436094343662262 -9.406309127807617 0.1436094343662262 C -9.396018981933594 0.1436094343662262 -9.389108657836914 0.1441094279289246 -9.386269569396973 0.1444494277238846 L -9.374829292297363 0.1462194323539734 L -9.365798950195312 0.1458594352006912 L 2.281100988388062 0.1458594352006912 L 2.291760921478271 0.1458594352006912 L 2.302310943603516 0.1443494260311127 C 2.302002429962158 0.1444086134433746 2.302189111709595 0.1444289684295654 2.302769899368286 0.1444289684295654 C 2.304053783416748 0.1444289684295654 2.307265520095825 0.1443294286727905 2.311320781707764 0.1443294286727905 C 2.423580884933472 0.1443294286727905 3.408350944519043 0.2364494353532791 3.418000936508179 3.427349328994751 C 3.428220987319946 6.802199363708496 2.290430784225464 6.882449626922607 2.278940916061401 6.882869243621826 Z" stroke="none"/>
                                      <path d="M -9.406360626220703 0.293609619140625 C -9.445500373840332 0.2936205863952637 -9.585829734802246 0.3066606521606445 -9.751909255981445 0.473609447479248 C -9.999118804931641 0.722109317779541 -10.41228866577148 1.436019420623779 -10.40193939208984 3.425339460372925 C -10.38558197021484 6.573127746582031 -9.405515670776367 6.727837562561035 -9.362415313720703 6.732839584350586 L 2.27208137512207 6.732839584350586 C 2.327486038208008 6.724297523498535 3.277387619018555 6.527925491333008 3.268000602722168 3.427809476852417 C 3.259116172790527 0.4904394149780273 2.415399551391602 0.3062353134155273 2.318740844726562 0.2950534820556641 L 2.317010879516602 0.2958593368530273 L -9.365798950195312 0.2958593368530273 L -9.377589225769043 0.3004493713378906 L -9.406360626220703 0.293609619140625 M -9.406306266784668 -0.006390571594238281 C -9.380292892456055 -0.006390571594238281 -9.365798950195312 -0.004140377044677734 -9.365798950195312 -0.004140377044677734 L 2.281101226806641 -0.004140377044677734 C 2.281105041503906 -0.004140377044677734 3.557070732116699 -0.1865339279174805 3.568000793457031 3.426899433135986 C 3.578941345214844 7.04041862487793 2.280956268310547 7.032840251922607 2.281101226806641 7.032839298248291 L -9.365798950195312 7.032839298248291 C -9.365798950195312 7.032839298248291 -10.68300914764404 7.068092346191406 -10.70193862915039 3.426899433135986 C -10.718918800354 0.1626386642456055 -9.631592750549316 -0.006390571594238281 -9.406306266784668 -0.006390571594238281 Z" stroke="none" fill="#43503c"/>
                                    </g>
                                    <text id="Hull" transform="translate(3.424 0.931)" font-size="4" font-family="Futura-Medium, Futura" font-weight="500"><tspan x="0" y="4">Hull</tspan></text>
                                  </g>
                                </g>
                              </g>
                            </g>
                          </g>
                        </g>
                      </g>
                    </g>
                  </g>
                </g>
              </g>
            </g>
          </g>
        </g>
      </g>
    </g>
  </g>
</svg>
