<svg xmlns="http://www.w3.org/2000/svg" width="24.598" height="7.039" viewBox="0 0 24.598 7.039">
  <g id="Group_17" data-name="Group 17" transform="translate(-12.076 -8.319)">
    <g id="Group_16" data-name="Group 16" transform="translate(12.076 8.319)">
      <g id="Group_15" data-name="Group 15" transform="translate(0)">
        <g id="Group_14" data-name="Group 14">
          <g id="Group_13" data-name="Group 13">
            <g id="Group_12" data-name="Group 12">
              <g id="Group_11" data-name="Group 11">
                <g id="Group_10" data-name="Group 10">
                  <g id="Group_9" data-name="Group 9">
                    <g id="Group_8" data-name="Group 8">
                      <g id="Group_7" data-name="Group 7">
                        <g id="Group_6" data-name="Group 6">
                          <g id="Group_5" data-name="Group 5">
                            <g id="Group_4" data-name="Group 4">
                              <g id="Group_3" data-name="Group 3">
                                <g id="Group_2" data-name="Group 2">
                                  <g id="Group_1" data-name="Group 1">
                                    <g id="Path_1" data-name="Path 1" transform="translate(10.702 0.006)" fill="#f8f4af">
                                      <path d="M -8.401055335998535 6.882849216461182 C -8.487605094909668 6.882849216461182 -10.521164894104 6.843549251556396 -10.55180549621582 3.425559520721436 C -10.56309509277344 2.165509462356567 -10.29038524627686 1.245649456977844 -9.741225242614746 0.6915494203567505 C -9.237335205078125 0.1831194311380386 -8.63963508605957 0.1436094343662262 -8.46844482421875 0.1436094343662262 C -8.434695243835449 0.1436094343662262 -8.414655685424805 0.145039439201355 -8.411595344543457 0.1452994346618652 L -8.405364990234375 0.1458194404840469 L -8.398625373840332 0.1458594352006912 L 11.67776489257812 0.1458594352006912 L 11.68396472930908 0.1458594352006912 L 11.69015502929688 0.1453494280576706 C 11.69224452972412 0.1451894342899323 11.70631504058838 0.1443294286727905 11.72986507415771 0.1443294286727905 C 12.06368446350098 0.1443294286727905 13.72976493835449 0.3026194274425507 13.74606513977051 3.427679538726807 C 13.75347518920898 4.847489356994629 13.39665508270264 5.894819259643555 12.7141752243042 6.45643949508667 C 12.20458507537842 6.875789642333984 11.68291473388672 6.882819652557373 11.67770481109619 6.882839202880859 L -8.398625373840332 6.882839202880859 L -8.401055335998535 6.882849216461182 Z" stroke="none"/>
                                      <path d="M -8.468445777893066 0.293609619140625 C -8.624966621398926 0.293609619140625 -9.171636581420898 0.3299193382263184 -9.634686470031738 0.7971396446228027 C -10.15463638305664 1.321779251098633 -10.41273593902588 2.205649375915527 -10.40180587768555 3.424209356307983 C -10.37248611450195 6.695239543914795 -8.481535911560059 6.732849597930908 -8.398626327514648 6.732839584350586 L 11.67646408081055 6.732849597930908 C 11.75554370880127 6.73185920715332 13.61298370361328 6.671529293060303 13.5960636138916 3.428459405899048 C 13.58050346374512 0.4453792572021484 12.03877353668213 0.2943196296691895 11.7298641204834 0.2943296432495117 C 11.71402359008789 0.2943296432495117 11.70378398895264 0.2947793006896973 11.70249366760254 0.2948393821716309 L 11.67776393890381 0.2958593368530273 L -8.423525810241699 0.2948193550109863 C -8.428106307983398 0.2944693565368652 -8.443726539611816 0.293609619140625 -8.468445777893066 0.293609619140625 M -8.468450546264648 -0.006390571594238281 C -8.423609733581543 -0.006390571594238281 -8.398626327514648 -0.004140377044677734 -8.398626327514648 -0.004140377044677734 L 11.67776393890381 -0.004140377044677734 C 11.67776679992676 -0.004143714904785156 13.87721347808838 -0.1865229606628418 13.89606380462646 3.426899433135986 C 13.91491317749023 7.040229320526123 11.67765998840332 7.032839298248291 11.67776393890381 7.032839298248291 L -8.398626327514648 7.032839298248291 C -8.398617744445801 7.032839298248291 -10.66915702819824 7.068065166473389 -10.70179653167725 3.426899433135986 C -10.73106670379639 0.1626386642456055 -8.856788635253906 -0.006390571594238281 -8.468450546264648 -0.006390571594238281 Z" stroke="none" fill="#43503c"/>
                                    </g>
                                    <text id="Marshfield" transform="translate(2.424 0.931)" font-size="4" font-family="Futura-Medium, Futura" font-weight="500"><tspan x="0" y="4">Marshfield</tspan></text>
                                  </g>
                                </g>
                              </g>
                            </g>
                          </g>
                        </g>
                      </g>
                    </g>
                  </g>
                </g>
              </g>
            </g>
          </g>
        </g>
      </g>
    </g>
  </g>
</svg>
