<svg xmlns="http://www.w3.org/2000/svg" width="20.424" height="7.039" viewBox="0 0 20.424 7.039">
  <g id="Group_17" data-name="Group 17" transform="translate(-12.076 -8.319)">
    <g id="Group_16" data-name="Group 16" transform="translate(11.381 8.219)">
      <g id="Group_15" data-name="Group 15" transform="translate(0)">
        <g id="Group_14" data-name="Group 14">
          <g id="Group_13" data-name="Group 13" transform="translate(0 0.1)">
            <g id="Group_12" data-name="Group 12">
              <g id="Group_11" data-name="Group 11">
                <g id="Group_10" data-name="Group 10">
                  <g id="Group_9" data-name="Group 9">
                    <g id="Group_8" data-name="Group 8">
                      <g id="Group_7" data-name="Group 7">
                        <g id="Group_6" data-name="Group 6">
                          <g id="Group_5" data-name="Group 5">
                            <g id="Group_4" data-name="Group 4">
                              <g id="Group_3" data-name="Group 3">
                                <g id="Group_2" data-name="Group 2">
                                  <g id="Group_1" data-name="Group 1" transform="translate(0.696)">
                                    <g id="Path_1" data-name="Path 1" transform="translate(10.702 0.006)" fill="#f8f4af">
                                      <path d="M -8.853582382202148 6.882849216461182 C -8.921913146972656 6.882849216461182 -10.52725315093994 6.843559265136719 -10.5518627166748 3.425819396972656 C -10.56170272827148 2.059889316558838 -10.29292297363281 1.06192946434021 -9.774562835693359 0.539829432964325 C -9.419522285461426 0.1822194308042526 -9.050083160400391 0.1436094343662262 -8.907722473144531 0.1436094343662262 C -8.88475227355957 0.1436094343662262 -8.87064266204834 0.144709438085556 -8.867403030395508 0.1450294405221939 L -8.86002254486084 0.1457594335079193 L -8.851633071899414 0.1458594352006912 L 7.276567459106445 0.1458594352006912 L 7.284287452697754 0.1458594352006912 L 7.291957378387451 0.1450694352388382 C 7.2935471534729 0.1449394375085831 7.303107261657715 0.1443294286727905 7.318417072296143 0.1443294286727905 C 7.581667423248291 0.1443294286727905 8.895526885986328 0.3026194274425507 8.90861701965332 3.427529335021973 C 8.9161376953125 5.221809387207031 8.464877128601074 6.067329406738281 8.084987640380859 6.460689544677734 C 7.686077117919922 6.873739242553711 7.292647361755371 6.882659435272217 7.276097297668457 6.882839202880859 L -8.851633071899414 6.882839202880859 L -8.853582382202148 6.882849216461182 Z" stroke="none"/>
                                      <path d="M -8.907722473144531 0.293609619140625 C -9.004142761230469 0.293609619140625 -9.34393310546875 0.3189892768859863 -9.668112754821777 0.6455092430114746 C -10.00950241088867 0.9893693923950195 -10.41392230987549 1.750669479370117 -10.4018726348877 3.424739360809326 C -10.37844276428223 6.677909374237061 -8.91527271270752 6.732139587402344 -8.851633071899414 6.732839584350586 L 7.273237228393555 6.732869625091553 C 7.334446907043457 6.731179237365723 8.772147178649902 6.654309272766113 8.758617401123047 3.428159475326538 C 8.751777648925781 1.795599460601807 8.374856948852539 1.032389640808105 8.059857368469238 0.6796092987060547 C 7.740636825561523 0.3220992088317871 7.411657333374023 0.2943296432495117 7.318417549133301 0.2943296432495117 C 7.311293601989746 0.2943291664123535 7.306135177612305 0.2944941520690918 7.307015419006348 0.2943220138549805 L 7.296816825866699 0.2958593368530273 L -8.881102561950684 0.2943992614746094 C -8.885052680969238 0.2940692901611328 -8.894203186035156 0.293609619140625 -8.907722473144531 0.293609619140625 M -8.90772533416748 -0.006390571594238281 C -8.871702194213867 -0.006390571594238281 -8.851633071899414 -0.004140377044677734 -8.851633071899414 -0.004140377044677734 L 7.276567459106445 -0.004140377044677734 C 7.276565551757812 -0.004138946533203125 9.043478012084961 -0.1865177154541016 9.05861759185791 3.426899433135986 C 9.073768615722656 7.040399551391602 7.276650428771973 7.032839775085449 7.276567459106445 7.032839298248291 L -8.851633071899414 7.032839298248291 C -8.851646423339844 7.032839775085449 -10.67564392089844 7.068089485168457 -10.70186233520508 3.426899433135986 C -10.72537708282471 0.1626386642456055 -9.219693183898926 -0.006390571594238281 -8.90772533416748 -0.006390571594238281 Z" stroke="none" fill="#43503c"/>
                                    </g>
                                    <text id="Norwell" transform="translate(2.424 0.681)" font-size="4" font-family="Futura-Medium, Futura" font-weight="500"><tspan x="0" y="4">Norwell</tspan></text>
                                  </g>
                                </g>
                              </g>
                            </g>
                          </g>
                        </g>
                      </g>
                    </g>
                  </g>
                </g>
              </g>
            </g>
          </g>
        </g>
      </g>
    </g>
  </g>
</svg>
