<svg xmlns="http://www.w3.org/2000/svg" width="24.598" height="7.039" viewBox="0 0 25.001 7.039">
  <g id="Group_17" data-name="Group 17" transform="translate(-10.298 -9.791)">
    <g id="Group_16" data-name="Group 16" transform="translate(10.298 9.791)">
      <g id="Group_15" data-name="Group 15" transform="translate(0)">
        <g id="Group_14" data-name="Group 14">
          <g id="Group_13" data-name="Group 13">
            <g id="Group_12" data-name="Group 12">
              <g id="Group_11" data-name="Group 11">
                <g id="Group_10" data-name="Group 10">
                  <g id="Group_9" data-name="Group 9">
                    <g id="Group_8" data-name="Group 8">
                      <g id="Group_7" data-name="Group 7">
                        <g id="Group_6" data-name="Group 6">
                          <g id="Group_5" data-name="Group 5">
                            <g id="Group_4" data-name="Group 4">
                              <g id="Group_3" data-name="Group 3">
                                <g id="Group_2" data-name="Group 2">
                                  <g id="Group_1" data-name="Group 1">
                                    <g id="Path_1" data-name="Path 1" transform="translate(10.702 0.006)" fill="#f8f4af">
                                      <path d="M -8.356441497802734 6.982565879821777 C -8.444790840148926 6.982565879821777 -10.52055072784424 6.942686080932617 -10.55180072784424 3.474186182022095 C -10.56329154968262 2.198736190795898 -10.28632068634033 1.266676068305969 -9.728590965270996 0.703886091709137 C -9.213371276855469 0.1840061098337173 -8.600661277770996 0.14360611140728 -8.425150871276855 0.14360611140728 C -8.390491485595703 0.14360611140728 -8.369951248168945 0.145076110959053 -8.366881370544434 0.1453261077404022 L -8.360681533813477 0.1458461135625839 L -8.353971481323242 0.1458861082792282 L 12.11158847808838 0.1458861082792282 L 12.11775875091553 0.1458861082792282 L 12.1239185333252 0.1453761011362076 C 12.1260290145874 0.1452261060476303 12.14046859741211 0.1443361043930054 12.16468906402588 0.1443361043930054 C 12.50546932220459 0.1443361043930054 14.20626926422119 0.3049761056900024 14.2228889465332 3.47632622718811 C 14.22990894317627 4.814126014709473 13.93073844909668 5.797986030578613 13.33370876312256 6.400576114654541 C 12.76622867584229 6.973326206207275 12.11802864074707 6.982526302337646 12.11153888702393 6.982556343078613 L -8.353971481323242 6.982556343078613 L -8.356441497802734 6.982565879821777 Z" stroke="none"/>
                                      <path d="M -8.425150871276855 0.2936062812805176 C -8.586001396179199 0.2936062812805176 -9.14768123626709 0.3308062553405762 -9.622051239013672 0.8094758987426758 C -10.15058135986328 1.342786312103271 -10.41292095184326 2.238876342773438 -10.40180110931396 3.472836017608643 C -10.37188148498535 6.794375896453857 -8.438720703125 6.832566261291504 -8.353971481323242 6.832556247711182 L 12.11035919189453 6.832566261291504 C 12.1912088394165 6.831595897674561 14.09016895294189 6.771056175231934 14.07288932800293 3.477106094360352 C 14.05699920654297 0.4477262496948242 12.48055839538574 0.2943263053894043 12.16468906402588 0.2943363189697266 C 12.14820861816406 0.2943363189697266 12.1375789642334 0.2948060035705566 12.13615894317627 0.2948760986328125 L 12.11158847808838 0.2958860397338867 L -8.37877082824707 0.294856071472168 C -8.383391380310059 0.2945060729980469 -8.399531364440918 0.2936062812805176 -8.425150871276855 0.2936062812805176 M -8.425149917602539 -0.006395816802978516 C -8.379440307617188 -0.006395816802978516 -8.353971481323242 -0.004113674163818359 -8.353971481323242 -0.004113674163818359 L 12.11158847808838 -0.004113674163818359 C 12.11159229278564 -0.004114151000976562 14.35366916656494 -0.1890678405761719 14.37288856506348 3.475536108016968 C 14.39210891723633 7.140138626098633 12.11161136627197 7.132555484771729 12.11158847808838 7.132555961608887 L -8.353971481323242 7.132555961608887 C -8.353947639465332 7.132556438446045 -10.6685209274292 7.16830587387085 -10.70179080963135 3.475536108016968 C -10.73162651062012 0.1650257110595703 -8.821016311645508 -0.006395816802978516 -8.425149917602539 -0.006395816802978516 Z" stroke="none" fill="#43503c"/>
                                    </g>
                                    <text id="Chinatown" data-name="Chinatown" transform="translate(2.619 0.781)" font-size="4" font-family="Futura-Medium, Futura" font-weight="500"><tspan x="-0.5" y="4">Chinatown</tspan></text>
                                  </g>
                                </g>
                              </g>
                            </g>
                          </g>
                        </g>
                      </g>
                    </g>
                  </g>
                </g>
              </g>
            </g>
          </g>
        </g>
      </g>
    </g>
  </g>
</svg>
