<?xml version="1.0" encoding="iso-8859-1"?>
<!-- Generator: Adobe Illustrator 16.0.0, SVG Export Plug-In . SVG Version: 6.00 Build 0)  -->
<!DOCTYPE svg PUBLIC "-//W3C//DTD SVG 1.1//EN" "http://www.w3.org/Graphics/SVG/1.1/DTD/svg11.dtd">
<svg version="1.1" xmlns="http://www.w3.org/2000/svg" xmlns:xlink="http://www.w3.org/1999/xlink" x="0px" y="0px" width="512px"
	 height="512px" viewBox="0 0 512 512" style="enable-background:new 0 0 512 512;" xml:space="preserve">
<g id="C_-_388_x2C__Apartments_x2C__building_x2C__city_building_x2C__housing_society_x2C__office_blocks">
	<g>
		<path d="M488.758,86.378c-0.803-0.23,14.817,2.514-231.044-40.242c-1.135-0.197-2.293-0.197-3.428,0
			C7.531,89.052,23.24,86.135,21.303,87.164C17.862,89.008,16,92.497,16,95.988v325.714c0,4.953,3.626,9.16,8.525,9.891
			c54.2,8.077,228.265,34.033,230.146,34.297c2.153,0.292-13.982,2.48,232.803-34.297c4.899-0.73,8.525-4.938,8.525-9.891V95.988
			C496,91.645,493.123,87.616,488.758,86.378z M256,66.138l167.271,29.091L256,120.164L88.729,95.229L256,66.138z M36,107.589
			l210,31.304v305.493L36,413.082V107.589z M476,413.082l-210,31.305V138.894l210-31.304V413.082z" fill="white"/>
		<path d="M177.24,166.065l-80-10c-5.48-0.69-10.479,3.202-11.163,8.683c-0.685,5.48,3.202,10.478,8.683,11.163
			c84.94,10.589,80.063,10.078,81.253,10.078c4.97,0,9.278-3.702,9.91-8.761C186.608,171.749,182.721,166.75,177.24,166.065z" fill="white"/>
		<path d="M177.24,236.065l-80-10c-5.48-0.688-10.479,3.203-11.163,8.683c-0.685,5.48,3.202,10.478,8.683,11.163
			c84.94,10.589,80.063,10.078,81.253,10.078c4.97,0,9.278-3.702,9.91-8.761C186.608,241.749,182.721,236.75,177.24,236.065z" fill="white"/>
		<path d="M177.24,306.065l-80-10c-5.48-0.687-10.479,3.202-11.163,8.683c-0.685,5.48,3.202,10.478,8.683,11.163
			c84.94,10.589,80.063,10.078,81.253,10.078c4.97,0,9.278-3.701,9.91-8.761C186.608,311.748,182.721,306.751,177.24,306.065z" fill="white"/>
		<path d="M177.24,376.065l-80-10c-5.48-0.69-10.479,3.202-11.163,8.683c-0.685,5.48,3.202,10.478,8.683,11.163l80,10
			c5.455,0.684,10.475-3.179,11.163-8.683C186.608,381.748,182.721,376.751,177.24,376.065z" fill="white"/>
		<path d="M337.24,185.911l80-10c5.48-0.685,9.367-5.683,8.683-11.163c-0.686-5.48-5.683-9.372-11.163-8.683l-80,10
			c-5.48,0.685-9.367,5.683-8.683,11.163C326.765,182.727,331.779,186.595,337.24,185.911z" fill="white"/>
		<path d="M337.24,255.911l80-10c5.48-0.685,9.367-5.683,8.683-11.163c-0.686-5.48-5.683-9.37-11.163-8.683l-80,10
			c-5.48,0.685-9.367,5.683-8.683,11.163C326.765,252.727,331.779,256.596,337.24,255.911z" fill="white"/>
		<path d="M337.24,325.911l80-10c5.48-0.686,9.367-5.683,8.683-11.163c-0.686-5.48-5.683-9.374-11.163-8.683l-80,10
			c-5.48,0.686-9.367,5.683-8.683,11.163C326.765,322.727,331.779,326.596,337.24,325.911z" fill="white"/>
		<path d="M337.24,395.911l80-10c5.48-0.686,9.367-5.683,8.683-11.163c-0.686-5.48-5.683-9.372-11.163-8.683l-80,10
			c-5.48,0.686-9.367,5.683-8.683,11.163C326.765,392.727,331.779,396.596,337.24,395.911z" fill="white"/>
	</g>
</g>
<g id="Layer_1">
</g>
</svg>
