<svg xmlns="http://www.w3.org/2000/svg" xmlns:xlink="http://www.w3.org/1999/xlink" width="34" height="36" viewBox="0 0 34 36">
  <defs>
    <clipPath id="clip-Custom_Size_1">
      <rect width="34" height="36"/>
    </clipPath>
  </defs>
  <g id="Custom_Size_1" data-name="Custom Size – 1" clip-path="url(#clip-Custom_Size_1)">
    <g id="Group_6" data-name="Group 6">
      <g id="Group_5" data-name="Group 5">
        <g id="Group_4" data-name="Group 4">
          <g id="Group_3" data-name="Group 3" transform="translate(2 5)">
            <g id="Group_2" data-name="Group 2">
              <g id="Group_1" data-name="Group 1" transform="matrix(0.999, 0.035, -0.035, 0.999, 0.398, -0.438)">
                <g id="Path_1" data-name="Path 1" transform="matrix(0.669, -0.743, 0.743, 0.669, 8.451, 10.709)" fill="#fff">
                  <path d="M-.025,0H11.591V2.4H-.025L-.789.014Z" stroke="none"/>
                  <path d="M -0.02527904510498047 0 L 11.59050846099854 0 L 11.59050846099854 2.400000095367432 L -0.02527904510498047 2.400000095367432 L -0.7894906997680664 0.0139765739440918 L -0.02527904510498047 0 Z" stroke="none" fill="#000"/>
                </g>
                <g id="Path_2" data-name="Path 2" transform="matrix(0.695, 0.719, -0.719, 0.695, 10.234, 10.31)" fill="#fff">
                  <path d="M-.03,0H11.5V2.4L-.879,2.387Z" stroke="none"/>
                  <path d="M -0.0299530029296875 -3.337860107421875e-06 L 11.50109386444092 -3.337860107421875e-06 L 11.50109386444092 2.396278858184814 L -0.8789052963256836 2.387055397033691 L -0.0299530029296875 -3.337860107421875e-06 Z" stroke="none" fill="#000"/>
                </g>
              </g>
            </g>
          </g>
        </g>
      </g>
    </g>
  </g>
</svg>
