<?xml version="1.0" encoding="UTF-8"?><svg id="Layer_1" xmlns="http://www.w3.org/2000/svg" viewBox="0 0 48 48"><path d="M6.25,13.417c-.803,0-1.606-.183-2.246-.549-.656-.375-1.852-.375-2.508,0-.479,.275-1.09,.108-1.364-.372-.274-.479-.107-1.09,.372-1.364,1.279-.732,3.213-.732,4.492,0,.656,.375,1.852,.375,2.508,0,.479-.274,1.09-.107,1.364,.372s.107,1.09-.372,1.364c-.64,.366-1.443,.549-2.246,.549Z" fill="white"/><path d="M6.25,17.417c-.803,0-1.606-.183-2.246-.549-.656-.375-1.852-.375-2.508,0-.479,.275-1.09,.107-1.364-.372s-.107-1.09,.372-1.364c1.279-.732,3.213-.732,4.492,0,.656,.375,1.852,.375,2.508,0,.479-.275,1.09-.107,1.364,.372s.107,1.09-.372,1.364c-.64,.366-1.443,.549-2.246,.549Z" fill="white"/><path d="M6.25,21.417c-.803,0-1.606-.183-2.246-.549-.656-.375-1.852-.375-2.508,0-.479,.274-1.09,.107-1.364-.372s-.107-1.09,.372-1.364c1.279-.732,3.213-.732,4.492,0,.656,.375,1.852,.375,2.508,0,.479-.275,1.09-.107,1.364,.372s.107,1.09-.372,1.364c-.64,.366-1.443,.549-2.246,.549Z" fill="white"/><path d="M29.318,30h-.318c-.552,0-1,.448-1,1v3c0,.552,.448,1,1,1h1.067l-.749-5Z" fill="white"/><path d="M37.999,28c-2.273,0-4.658-.153-7.018-.394l1.774,11.841c.224,1.479,1.472,2.554,2.968,2.554h3.277c1.654,0,3-1.346,3-3v-11.692c-1.267,.447-2.612,.692-4.001,.692Z" fill="white"><path d="M38,12c-2.204,0-3.997,1.794-3.997,3.998s1.793,3.998,3.997,3.998,3.997-1.794,3.997-3.998-1.793-3.998-3.997-3.998Zm0,4.996c-.551,0-.998-.447-.998-.998s.447-.998,.998-.998,.998,.447,.998,.998-.447,.998-.998,.998Z" fill="white"/><path d="M37.776,6c-6.088,0-13.577,1.211-18.776,2.344v15.301c5,1.093,12.467,2.355,18.999,2.355,2.759,0,5.327-1.1,7.233-3.095,1.905-1.995,2.884-4.616,2.757-7.38-.242-5.252-4.823-9.525-10.213-9.525Zm.224,15.996c-3.307,0-5.997-2.69-5.997-5.998s2.69-5.998,5.997-5.998,5.997,2.69,5.997,5.998-2.69,5.998-5.997,5.998Z" fill="white"/><path d="M17,8.8c-1.184,.286-2.174,.554-2.902,.781h0c-1.254,.393-2.097,1.543-2.097,2.862v7.107c0,1.321,.844,2.473,2.101,2.863,.637,.198,1.644,.469,2.899,.771V8.8Z" fill="white"/></svg>