<?xml version="1.0" encoding="UTF-8" standalone="no"?> <svg width="64" height="64" viewBox="0 0 64 64" fill="none" xmlns="http://www.w3.org/2000/svg">
<path d="M22 30C22.7911 30 23.5645 29.7654 24.2223 29.3259C24.8801 28.8864 25.3928 28.2616 25.6955 27.5307C25.9983 26.7998 26.0775 25.9956 25.9231 25.2196C25.7688 24.4437 25.3878 23.731 24.8284 23.1716C24.269 22.6122 23.5563 22.2312 22.7804 22.0769C22.0044 21.9225 21.2002 22.0017 20.4693 22.3045C19.7384 22.6072 19.1136 23.1199 18.6741 23.7777C18.2346 24.4355 18 25.2089 18 26C18 27.0609 18.4214 28.0783 19.1716 28.8284C19.9217 29.5786 20.9391 30 22 30ZM22 24C22.3956 24 22.7822 24.1173 23.1111 24.3371C23.44 24.5568 23.6964 24.8692 23.8478 25.2346C23.9991 25.6001 24.0387 26.0022 23.9616 26.3902C23.8844 26.7781 23.6939 27.1345 23.4142 27.4142C23.1345 27.6939 22.7781 27.8844 22.3902 27.9616C22.0022 28.0387 21.6001 27.9991 21.2346 27.8478C20.8692 27.6964 20.5568 27.44 20.3371 27.1111C20.1173 26.7822 20 26.3956 20 26C20 25.4696 20.2107 24.9609 20.5858 24.5858C20.9609 24.2107 21.4696 24 22 24V24Z" fill="white"/>
<path d="M61 2H55C54.7348 2 54.4804 2.10536 54.2929 2.29289C54.1054 2.48043 54 2.73478 54 3V6H50V3C50 2.73478 49.8946 2.48043 49.7071 2.29289C49.5196 2.10536 49.2652 2 49 2H43C42.7348 2 42.4804 2.10536 42.2929 2.29289C42.1054 2.48043 42 2.73478 42 3V6H38V3C38 2.73478 37.8946 2.48043 37.7071 2.29289C37.5196 2.10536 37.2652 2 37 2H31C30.7348 2 30.4804 2.10536 30.2929 2.29289C30.1054 2.48043 30 2.73478 30 3V20.87L22.53 16.15C22.3706 16.0519 22.1872 15.9999 22 15.9999C21.8128 15.9999 21.6294 16.0519 21.47 16.15L2.47 28.15C2.32748 28.2418 2.20995 28.3675 2.12793 28.5158C2.0459 28.6641 2.00195 28.8305 2 29V33C2 33.2652 2.10536 33.5196 2.29289 33.7071C2.48043 33.8946 2.73478 34 3 34H4V61C4 61.2652 4.10536 61.5196 4.29289 61.7071C4.48043 61.8946 4.73478 62 5 62H61C61.2652 62 61.5196 61.8946 61.7071 61.7071C61.8946 61.5196 62 61.2652 62 61V3C62 2.73478 61.8946 2.48043 61.7071 2.29289C61.5196 2.10536 61.2652 2 61 2V2ZM4 32V29.55L22 18.18L40 29.55V32H4ZM40 38H42V42H40V38ZM40 50H42V54H40V50ZM21 60H12V52H21V60ZM10 50V49H34V50H10ZM32 60H23V52H32V60ZM38 60H34V52H35C35.2652 52 35.5196 51.8946 35.7071 51.7071C35.8946 51.5196 36 51.2652 36 51V48C36 47.7348 35.8946 47.4804 35.7071 47.2929C35.5196 47.1054 35.2652 47 35 47H9C8.73478 47 8.48043 47.1054 8.29289 47.2929C8.10536 47.4804 8 47.7348 8 48V51C8 51.2652 8.10536 51.5196 8.29289 51.7071C8.48043 51.8946 8.73478 52 9 52H10V60H6V34H38V60ZM60 60H40V56H43C43.2652 56 43.5196 55.8946 43.7071 55.7071C43.8946 55.5196 44 55.2652 44 55V49C44 48.7348 43.8946 48.4804 43.7071 48.2929C43.5196 48.1054 43.2652 48 43 48H40V44H43C43.2652 44 43.5196 43.8946 43.7071 43.7071C43.8946 43.5196 44 43.2652 44 43V37C44 36.7348 43.8946 36.4804 43.7071 36.2929C43.5196 36.1054 43.2652 36 43 36H40V34H41C41.2652 34 41.5196 33.8946 41.7071 33.7071C41.8946 33.5196 42 33.2652 42 33V29C41.9981 28.8305 41.9541 28.6641 41.8721 28.5158C41.7901 28.3675 41.6725 28.2418 41.53 28.15L31.98 22.12C31.98 22.08 32 22.04 32 22V20H60V60ZM60 18H32V14H60V18ZM60 12H32V4H36V7C36 7.26522 36.1054 7.51957 36.2929 7.70711C36.4804 7.89464 36.7348 8 37 8H43C43.2652 8 43.5196 7.89464 43.7071 7.70711C43.8946 7.51957 44 7.26522 44 7V4H48V7C48 7.26522 48.1054 7.51957 48.2929 7.70711C48.4804 7.89464 48.7348 8 49 8H55C55.2652 8 55.5196 7.89464 55.7071 7.70711C55.8946 7.51957 56 7.26522 56 7V4H60V12Z" fill="white"/>
<path d="M49 32H55C55.2652 32 55.5196 31.8946 55.7071 31.7071C55.8946 31.5196 56 31.2652 56 31V25C56 24.7348 55.8946 24.4804 55.7071 24.2929C55.5196 24.1054 55.2652 24 55 24H49C48.7348 24 48.4804 24.1054 48.2929 24.2929C48.1054 24.4804 48 24.7348 48 25V31C48 31.2652 48.1054 31.5196 48.2929 31.7071C48.4804 31.8946 48.7348 32 49 32ZM50 26H54V30H50V26Z" fill="white"/>
<path d="M49 44H55C55.2652 44 55.5196 43.8946 55.7071 43.7071C55.8946 43.5196 56 43.2652 56 43V37C56 36.7348 55.8946 36.4804 55.7071 36.2929C55.5196 36.1054 55.2652 36 55 36H49C48.7348 36 48.4804 36.1054 48.2929 36.2929C48.1054 36.4804 48 36.7348 48 37V43C48 43.2652 48.1054 43.5196 48.2929 43.7071C48.4804 43.8946 48.7348 44 49 44ZM50 38H54V42H50V38Z" fill="white"/>
<path d="M49 56H55C55.2652 56 55.5196 55.8946 55.7071 55.7071C55.8946 55.5196 56 55.2652 56 55V49C56 48.7348 55.8946 48.4804 55.7071 48.2929C55.5196 48.1054 55.2652 48 55 48H49C48.7348 48 48.4804 48.1054 48.2929 48.2929C48.1054 48.4804 48 48.7348 48 49V55C48 55.2652 48.1054 55.5196 48.2929 55.7071C48.4804 55.8946 48.7348 56 49 56ZM50 50H54V54H50V50Z" fill="white"/>
<path d="M35 36H9C8.73478 36 8.48043 36.1054 8.29289 36.2929C8.10536 36.4804 8 36.7348 8 37V43C8 43.2652 8.10536 43.5196 8.29289 43.7071C8.48043 43.8946 8.73478 44 9 44H35C35.2652 44 35.5196 43.8946 35.7071 43.7071C35.8946 43.5196 36 43.2652 36 43V37C36 36.7348 35.8946 36.4804 35.7071 36.2929C35.5196 36.1054 35.2652 36 35 36ZM21 42H10V38H21V42ZM34 42H23V38H34V42Z" fill="white"/>
</svg>
