<?xml version="1.0" encoding="UTF-8" standalone="no"?> <svg xmlns="http://www.w3.org/2000/svg" viewBox="0 0 48 48"><title>Exercise Bike</title><g id="Exercise_Bike" data-name="Exercise Bike"><path d="M38.54,29.985,14.228,23.128A9.617,9.617,0,1,0,11.617,42H36.878A6.123,6.123,0,0,0,38.54,29.985Zm-16.709,4.38-1.126,2.781a1,1,0,0,1-1.853-.751l.187-.463L16.16,34.765a5.183,5.183,0,1,1,.748-1.855l2.882,1.168.188-.464a1,1,0,0,1,1.853.751Z"/><path d="M12,29a3,3,0,1,0,2.233,4.984l-2.609-1.057a1,1,0,0,1,.752-1.854l2.611,1.058c0-.044.013-.086.013-.131A3,3,0,0,0,12,29Z"/><path d="M45.325,7.651l-.582-.814a2,2,0,0,0-2.789-.464L35.2,11.2H27.5a2,2,0,0,0-2,2v1a2,2,0,0,0,2,2h6.128L31.06,25.8l3.84,1.08,3.091-11.533,6.869-4.906A2,2,0,0,0,45.325,7.651Z"/><path d="M6.1,18H7.473l.867,3.24a11.119,11.119,0,0,1,3.25-.48c.25,0,.51.01.76.03L11.6,18h2.169a3.228,3.228,0,0,0,.726-6.373L7.023,9.9A4.1,4.1,0,1,0,6.1,18Z"/></g></svg>