<?xml version="1.0" encoding="UTF-8" standalone="no"?> <svg width="64" height="64" viewBox="0 0 64 64" fill="none" xmlns="http://www.w3.org/2000/svg">
<path d="M35.308 36.75L33.983 35.25C33.4284 35.7183 32.7259 35.9751 32 35.9751C31.2741 35.9751 30.5717 35.7183 30.017 35.25L28.692 36.75C29.6055 37.556 30.7818 38.0007 32 38.0007C33.2182 38.0007 34.3945 37.556 35.308 36.75V36.75Z" fill="white"/>
<path d="M48 25V21C48 20.7348 47.8946 20.4804 47.7071 20.2929C47.5196 20.1054 47.2652 20 47 20H43V3C43 2.73478 42.8946 2.48043 42.7071 2.29289C42.5196 2.10536 42.2652 2 42 2H22C21.7348 2 21.4804 2.10536 21.2929 2.29289C21.1054 2.48043 21 2.73478 21 3V20H17C16.7348 20 16.4804 20.1054 16.2929 20.2929C16.1054 20.4804 16 20.7348 16 21V25C16 25.2652 16.1054 25.5196 16.2929 25.7071C16.4804 25.8946 16.7348 26 17 26H21C20.2084 25.9994 19.4345 26.2336 18.7761 26.6731C18.1177 27.1126 17.6045 27.7375 17.3015 28.4688C16.9985 29.2001 16.9193 30.0049 17.0739 30.7812C17.2285 31.5576 17.61 32.2706 18.17 32.83C18.4199 33.0703 18.6987 33.2786 19 33.45V34C18.9948 35.7084 19.328 37.4009 19.9802 38.9799C20.6324 40.559 21.5907 41.9932 22.8 43.2C23.4495 43.8415 24.1632 44.4146 24.93 44.91L23.18 45.79C21.0172 46.8654 19.1984 48.5246 17.9295 50.5799C16.6607 52.6352 15.9923 55.0046 16 57.42V61C16 61.2652 16.1054 61.5196 16.2929 61.7071C16.4804 61.8946 16.7348 62 17 62H47C47.2652 62 47.5196 61.8946 47.7071 61.7071C47.8946 61.5196 48 61.2652 48 61V57.42C48.0066 55.0035 47.3378 52.6332 46.0692 50.5765C44.8005 48.5199 42.9825 46.8585 40.82 45.78L39.05 44.91C40.8731 43.7322 42.3726 42.1169 43.4118 40.2113C44.4511 38.3058 44.997 36.1705 45 34V33.45C45.3013 33.2786 45.5801 33.0703 45.83 32.83C46.3901 32.2706 46.7715 31.5576 46.9261 30.7812C47.0807 30.0049 47.0015 29.2001 46.6985 28.4688C46.3955 27.7375 45.8823 27.1126 45.2239 26.6731C44.5656 26.2336 43.7916 25.9994 43 26H47C47.2652 26 47.5196 25.8946 47.7071 25.7071C47.8946 25.5196 48 25.2652 48 25ZM21 32C20.4708 31.9961 19.9644 31.7841 19.5901 31.4099C19.2159 31.0357 19.0039 30.5292 19 30C19.0016 29.4701 19.2128 28.9623 19.5875 28.5875C19.9623 28.2128 20.4701 28.0016 21 28V32ZM24 60H22V55H24V60ZM40 55H42V60H40V55ZM30 4H34V12H30V4ZM23 4H26V12H23V4ZM25 50C25 49.7015 25.0706 49.4072 25.2062 49.1413C25.3418 48.8754 25.5384 48.6453 25.78 48.47C26.102 48.243 26.4861 48.1208 26.88 48.12C27.0315 48.1168 27.1829 48.1336 27.33 48.17L29 49.49V50.51L27.33 51.83C27.0527 51.8986 26.7634 51.903 26.4842 51.843C26.2049 51.783 25.943 51.6601 25.7184 51.4836C25.4938 51.3072 25.3123 51.0819 25.1878 50.8248C25.0633 50.5677 24.9991 50.2856 25 50V50ZM35.38 57.78C35.0192 58.35 34.5202 58.8196 33.9292 59.145C33.3383 59.4703 32.6746 59.6409 32 59.6409C31.3254 59.6409 30.6617 59.4703 30.0708 59.145C29.4798 58.8196 28.9808 58.35 28.62 57.78L26.11 53.8C26.7744 53.9526 27.4686 53.9109 28.11 53.68C28.2196 53.6469 28.3215 53.5925 28.41 53.52L29.51 52.66C29.7818 53.072 30.1515 53.4101 30.5861 53.644C31.0206 53.8779 31.5065 54.0004 32 54.0004C32.4935 54.0004 32.9794 53.8779 33.4139 53.644C33.8485 53.4101 34.2182 53.072 34.49 52.66L35.59 53.52C35.6785 53.5925 35.7805 53.6469 35.89 53.68C36.5314 53.9109 37.2256 53.9526 37.89 53.8L35.38 57.78ZM31 51V49C31 48.7348 31.1054 48.4804 31.2929 48.2929C31.4804 48.1054 31.7348 48 32 48C32.2652 48 32.5196 48.1054 32.7071 48.2929C32.8946 48.4804 33 48.7348 33 49V51C33 51.2652 32.8946 51.5196 32.7071 51.7071C32.5196 51.8946 32.2652 52 32 52C31.7348 52 31.4804 51.8946 31.2929 51.7071C31.1054 51.5196 31 51.2652 31 51ZM38.22 51.53C37.9992 51.6902 37.7461 51.8001 37.4783 51.8519C37.2105 51.9037 36.9346 51.8963 36.67 51.83L35 50.51V49.49L36.67 48.17C36.9346 48.1037 37.2105 48.0963 37.4783 48.1481C37.7461 48.1999 37.9992 48.3098 38.22 48.47C38.4615 48.6454 38.658 48.8755 38.7935 49.1414C38.9291 49.4073 38.9997 49.7015 38.9997 50C38.9997 50.2985 38.9291 50.5927 38.7935 50.8586C38.658 51.1245 38.4615 51.3546 38.22 51.53ZM41 33C40.9979 34.8559 40.2597 36.6351 38.9474 37.9474C37.6351 39.2597 35.8559 39.9979 34 40H30C28.1441 39.9979 26.3649 39.2597 25.0526 37.9474C23.7403 36.6351 23.0021 34.8559 23 33V29.62L25.08 30.66C25.2481 31.3738 25.6718 32.0013 26.2711 32.424C26.8704 32.8466 27.6037 33.0351 28.3325 32.9539C29.0613 32.8726 29.7352 32.5272 30.2266 31.983C30.7181 31.4387 30.9932 30.7333 31 30C31 29.7348 31.1054 29.4804 31.2929 29.2929C31.4804 29.1054 31.7348 29 32 29C32.2652 29 32.5196 29.1054 32.7071 29.2929C32.8946 29.4804 33 29.7348 33 30C33.0068 30.7333 33.2819 31.4387 33.7734 31.983C34.2648 32.5272 34.9387 32.8726 35.6675 32.9539C36.3963 33.0351 37.1296 32.8466 37.7289 32.424C38.3282 32.0013 38.7519 31.3738 38.92 30.66L41 29.62V33ZM27 30C27 29.8022 27.0587 29.6089 27.1685 29.4444C27.2784 29.28 27.4346 29.1518 27.6173 29.0761C27.8 29.0004 28.0011 28.9806 28.1951 29.0192C28.3891 29.0578 28.5673 29.153 28.7071 29.2929C28.847 29.4327 28.9422 29.6109 28.9808 29.8049C29.0194 29.9989 28.9996 30.2 28.9239 30.3827C28.8482 30.5654 28.72 30.7216 28.5556 30.8315C28.3911 30.9414 28.1978 31 28 31C27.7348 31 27.4804 30.8946 27.2929 30.7071C27.1054 30.5196 27 30.2652 27 30ZM35 30C35 29.8022 35.0587 29.6089 35.1685 29.4444C35.2784 29.28 35.4346 29.1518 35.6173 29.0761C35.8 29.0004 36.0011 28.9806 36.1951 29.0192C36.3891 29.0578 36.5673 29.153 36.7071 29.2929C36.847 29.4327 36.9422 29.6109 36.9808 29.8049C37.0194 29.9989 36.9996 30.2 36.9239 30.3827C36.8482 30.5654 36.72 30.7216 36.5556 30.8315C36.3911 30.9414 36.1978 31 36 31C35.7348 31 35.4804 30.8946 35.2929 30.7071C35.1054 30.5196 35 30.2652 35 30ZM41 27.38L38.62 28.57C38.4073 28.1707 38.1059 27.8254 37.7391 27.5606C37.3723 27.2957 36.9497 27.1184 36.5037 27.0422C36.0578 26.9659 35.6003 26.9927 35.1663 27.1206C34.7323 27.2485 34.3333 27.4741 34 27.78C33.4548 27.2784 32.7409 27 32 27C31.2591 27 30.5453 27.2784 30 27.78C29.6667 27.4741 29.2677 27.2485 28.8337 27.1206C28.3998 26.9927 27.9423 26.9659 27.4963 27.0422C27.0503 27.1184 26.6277 27.2957 26.2609 27.5606C25.8941 27.8254 25.5928 28.1707 25.38 28.57L23 27.38V26H41V27.38ZM41 20H23V14H41V20ZM41 12H38V4H41V12ZM45 30C44.9961 30.5292 44.7841 31.0357 44.4099 31.4099C44.0357 31.7841 43.5292 31.9961 43 32V28C43.53 28.0016 44.0377 28.2128 44.4125 28.5875C44.7872 28.9623 44.9984 29.4701 45 30Z" fill="white"/>
<path d="M27 15H25V16H24V18H25V19H27V18H28V16H27V15Z" fill="white"/>
<path d="M33 15H31V16H30V18H31V19H33V18H34V16H33V15Z" fill="white"/>
<path d="M39 15H37V16H36V18H37V19H39V18H40V16H39V15Z" fill="white"/>
</svg>
