<?xml version="1.0" encoding="UTF-8" standalone="no"?> <svg xmlns="http://www.w3.org/2000/svg" viewBox="0 0 48 48"><title>Political Science</title><g id="_21_-_30" data-name="21 - 30"><g id="Political_Science" data-name="Political Science"><rect x="6" y="23" width="6" height="13" fill="#FFFFFF"/><rect x="16" y="23" width="6" height="13" fill="#FFFFFF"/><rect x="26" y="23" width="6" height="13" fill="#FFFFFF"/><rect x="36" y="23" width="6" height="13" fill="#FFFFFF"/><path d="M5,18v2a1,1,0,0,0,1,1h6a1,1,0,0,0,1-1V18Z" fill="#FFFFFF"/><path d="M15,18v2a1,1,0,0,0,1,1h6a1,1,0,0,0,1-1V18Z" fill="#FFFFFF"/><path d="M25,18v2a1,1,0,0,0,1,1h6a1,1,0,0,0,1-1V18Z" fill="#FFFFFF"/><path d="M35,18v2a1,1,0,0,0,1,1h6a1,1,0,0,0,1-1V18Z" fill="#FFFFFF"/><rect x="3" y="37.932" width="42" height="6" rx="2" fill="#FFFFFF"/><path d="M44.629,9.77,24.506,3.1a2.012,2.012,0,0,0-1.265,0L3.363,9.77A2,2,0,0,0,2,11.665V14a2,2,0,0,0,2,2H44a2,2,0,0,0,2-2V11.668A2,2,0,0,0,44.629,9.77Z" fill="#FFFFFF"/></g></g></svg>