<?xml version="1.0" encoding="UTF-8" standalone="no"?> <svg width="64" height="64" viewBox="0 0 64 64" fill="none" xmlns="http://www.w3.org/2000/svg">
<path d="M58.1599 4.00017C58.1602 3.68597 58.0865 3.37611 57.9448 3.09571C57.803 2.8153 57.5972 2.57224 57.344 2.38622C57.0907 2.20021 56.7973 2.07646 56.4873 2.02503C56.1773 1.97359 55.8596 1.99591 55.5599 2.09017L48.0899 4.47017C37.6232 7.80995 26.3766 7.80995 15.9099 4.47017L8.4399 2.09017C8.14017 1.99591 7.82245 1.97359 7.51249 2.02503C7.20253 2.07646 6.90904 2.20021 6.65583 2.38622C6.40261 2.57224 6.19678 2.8153 6.05502 3.09571C5.91326 3.37611 5.83957 3.68597 5.8399 4.00017V28.2602C5.83046 33.7641 7.04279 39.2016 9.38944 44.1802C11.7361 49.1588 15.1585 53.5545 19.4099 57.0502L24.8599 61.5402C25.2171 61.8361 25.666 61.9988 26.1299 62.0002H37.8699C38.3338 61.9988 38.7827 61.8361 39.1399 61.5402L44.5899 57.0502C48.8412 53.5545 52.2637 49.1588 54.6104 44.1802C56.957 39.2016 58.1693 33.7641 58.1599 28.2602V4.00017ZM13.9999 24.8302C14.3199 15.6802 27.5099 15.6902 27.8299 24.8302C27.8299 25.3606 27.6192 25.8693 27.2441 26.2444C26.869 26.6195 26.3603 26.8302 25.8299 26.8302C25.2995 26.8302 24.7908 26.6195 24.4157 26.2444C24.0406 25.8693 23.8299 25.3606 23.8299 24.8302C23.7863 24.0866 23.4602 23.3878 22.9184 22.8767C22.3765 22.3656 21.6598 22.081 20.9149 22.081C20.17 22.081 19.4533 22.3656 18.9114 22.8767C18.3696 23.3878 18.0435 24.0866 17.9999 24.8302C17.9999 25.3606 17.7892 25.8693 17.4141 26.2444C17.039 26.6195 16.5303 26.8302 15.9999 26.8302C15.4695 26.8302 14.9608 26.6195 14.5857 26.2444C14.2106 25.8693 13.9999 25.3606 13.9999 24.8302ZM31.9999 49.7502C21.9999 49.8702 14.1499 42.2902 20.2299 35.0002C20.4381 34.773 20.6959 34.5969 20.9833 34.4858C21.2707 34.3747 21.5799 34.3315 21.8868 34.3595C22.1936 34.3876 22.4899 34.4862 22.7523 34.6476C23.0148 34.8091 23.2364 35.029 23.3999 35.2902C26.9699 41.2002 37.0399 41.2002 40.5999 35.2902C40.7634 35.029 40.985 34.8091 41.2475 34.6476C41.5099 34.4862 41.8062 34.3876 42.113 34.3595C42.4199 34.3315 42.7291 34.3747 43.0165 34.4858C43.3039 34.5969 43.5617 34.773 43.7699 35.0002C49.8499 42.2902 41.9999 49.8702 31.9999 49.7502ZM45.9999 24.8302C45.9563 24.0866 45.6302 23.3878 45.0883 22.8767C44.5465 22.3656 43.8298 22.081 43.0849 22.081C42.34 22.081 41.6233 22.3656 41.0814 22.8767C40.5396 23.3878 40.2135 24.0866 40.1699 24.8302C40.1699 25.3606 39.9592 25.8693 39.5841 26.2444C39.209 26.6195 38.7003 26.8302 38.1699 26.8302C37.6395 26.8302 37.1308 26.6195 36.7557 26.2444C36.3806 25.8693 36.1699 25.3606 36.1699 24.8302C36.4899 15.6802 49.6799 15.6802 49.9999 24.8302C49.9999 25.3606 49.7892 25.8693 49.4141 26.2444C49.039 26.6195 48.5303 26.8302 47.9999 26.8302C47.4695 26.8302 46.9608 26.6195 46.5857 26.2444C46.2106 25.8693 45.9999 25.3606 45.9999 24.8302Z" fill="white"/>
</svg>
