<?xml version="1.0" encoding="UTF-8" standalone="no"?> <svg width="64" height="64" viewBox="0 0 64 64" fill="white" xmlns="http://www.w3.org/2000/svg">
<path d="M60.8 34C61.7 33 62.1 31.7 62 30.4C61.9 29.1 61.3 27.9 60.2 27C59.2 26.1 57.9 25.7 56.6 25.8C55.3 25.9 54.1 26.5 53.2 27.6C52.3 28.6 51.9 29.9 52 31.2C52 31.3 52 31.3 52 31.4C51.5 31.3 51.1 31.3 50.6 31.3C49.9 31.4 49.2 31.6 48.6 31.9C48.6 30.6 48.2 29.5 47.4 28.5C48.6 28 49.7 27 50.1 25.6C51 23 49.7 20.1 47.1 19.2C45.8 18.7 44.5 18.8 43.3 19.4C42.1 20 41.2 21 40.7 22.2C40.2 23.6 40.4 25 41 26.2C39.7 26.4 38.5 27.1 37.7 28.2C37.3 26.9 36.5 25.8 35.3 25.2C36.3 24.3 36.9 23 36.9 21.6C36.9 18.8 34.7 16.6 31.9 16.6C29.1 16.6 26.9 18.8 26.9 21.6C26.9 23 27.5 24.3 28.5 25.2C27.3 25.8 26.5 26.9 26.1 28.2C25.3 27.1 24.1 26.4 22.8 26.2C23.4 25 23.5 23.6 23.1 22.2C22.6 20.9 21.7 19.9 20.5 19.4C19.3 18.8 17.9 18.8 16.7 19.2C14.1 20.1 12.8 23 13.7 25.6C14.2 27 15.2 28 16.4 28.5C15.6 29.4 15.1 30.6 15.2 31.9C14.6 31.6 13.9 31.4 13.2 31.3C12.7 31.3 12.3 31.3 11.8 31.4C11.8 31.3 11.8 31.3 11.8 31.2C11.9 29.9 11.5 28.6 10.6 27.6C9.7 26.6 8.5 25.9 7.2 25.8C5.9 25.7 4.6 26.1 3.6 27C2.6 27.9 2.1 29 2 30.3C1.9 31.6 2.3 32.9 3.2 33.9C4.1 34.9 5.3 35.6 6.6 35.7C6.7 35.7 6.7 35.7 6.8 35.7C6.2 37.3 6.4 39.3 7.6 40.7L9.7 43.2C6.1 47.9 4 53.7 4 60V61C4 61.6 4.4 62 5 62C5.6 62 6 61.6 6 61V60C6 45.7 17.7 34 32 34C46.3 34 58 45.7 58 60V61C58 61.6 58.4 62 59 62C59.6 62 60 61.6 60 61V60C60 53.7 57.9 47.9 54.4 43.2L56.5 40.7C57.7 39.3 57.9 37.3 57.3 35.7C57.4 35.7 57.4 35.7 57.5 35.7C58.8 35.6 60 35 60.8 34ZM42.7 22.9C43 22.1 43.5 21.5 44.3 21.2C44.7 21 45.1 20.9 45.6 20.9C45.9 20.9 46.3 21 46.6 21.1C48.2 21.7 49 23.4 48.4 24.9C47.8 26.5 46.1 27.3 44.6 26.7C42.9 26.1 42.1 24.4 42.7 22.9ZM39 30C39.6 28.4 41.3 27.6 42.8 28.2L43.7 28.5L44.6 28.8C46.2 29.4 47 31.1 46.4 32.6L45.4 35.3C43.1 34 40.6 33.1 37.9 32.5L39 30ZM25 30L26 32.6C23.3 33.2 20.8 34.2 18.5 35.4L17.5 32.7C16.9 31.1 17.7 29.4 19.3 28.9L20.2 28.6L21.1 28.3C22.7 27.7 24.4 28.5 25 30ZM15.7 24.9C15.1 23.3 15.9 21.6 17.5 21.1C17.8 21 18.2 20.9 18.5 20.9C18.9 20.9 19.4 21 19.8 21.2C20.5 21.5 21.1 22.1 21.4 22.9C22 24.5 21.2 26.2 19.6 26.7C18 27.3 16.2 26.5 15.7 24.9Z" fill="black"/>
<path d="M32 36C18.8 36 8 46.8 8 60V61C8 61.6 8.4 62 9 62C9.6 62 10 61.6 10 61V60C10 47.9 19.9 38 32 38C44.1 38 54 47.9 54 60V61C54 61.6 54.4 62 55 62C55.6 62 56 61.6 56 61V60C56 46.8 45.2 36 32 36Z" fill="black"/>
<path d="M32 44C23.2 44 16 51.2 16 60V61C16 61.6 16.4 62 17 62C17.6 62 18 61.6 18 61V60C18 52.3 24.3 46 32 46C39.7 46 46 52.3 46 60V61C46 61.6 46.4 62 47 62C47.6 62 48 61.6 48 61V60C48 51.2 40.8 44 32 44Z" fill="black"/>
<path d="M32 40C21 40 12 49 12 60V61C12 61.6 12.4 62 13 62C13.6 62 14 61.6 14 61V60C14 50.1 22.1 42 32 42C41.9 42 50 50.1 50 60V61C50 61.6 50.4 62 51 62C51.6 62 52 61.6 52 61V60C52 49 43 40 32 40Z" fill="black"/>
<path d="M32 48C25.4 48 20 53.4 20 60V61C20 61.6 20.4 62 21 62C21.6 62 22 61.6 22 61V60C22 54.5 26.5 50 32 50C37.5 50 42 54.5 42 60V61C42 61.6 42.4 62 43 62C43.6 62 44 61.6 44 61V60C44 53.4 38.6 48 32 48Z" fill="black"/>
</svg>
